<?xml version="1.0" encoding="UTF-8" standalone="no"?>
<!DOCTYPE svg PUBLIC "-//W3C//DTD SVG 1.1//EN"
 "http://www.w3.org/Graphics/SVG/1.1/DTD/svg11.dtd">
<!-- Generated by graphviz version 2.49.1 (20210923.0004)
 -->
<!-- Title: main Pages: 1 -->
<!--zoomable 428 -->
<svg id="main" version="1.1" xmlns="http://www.w3.org/2000/svg" xmlns:xlink="http://www.w3.org/1999/xlink" xml:space="preserve" onload="init(evt)">
<style type="text/css"><![CDATA[
.edge:hover path { stroke: red; }
.edge:hover polygon { stroke: red; fill: red; }
]]></style>
<script type="text/javascript"><![CDATA[
var edges = document.getElementsByTagName('g');
if (edges && edges.length) {
  for (var i=0;i<edges.length;i++) {
    if (edges[i].id.substr(0,4)=='edge') {
      edges[i].setAttribute('class','edge');
    }
  }
}
]]></script>
        <defs>
                <circle id="rim" cx="0" cy="0" r="7"/>
                <circle id="rim2" cx="0" cy="0" r="3.5"/>
                <g id="zoomPlus">
                        <use xlink:href="#rim" fill="#404040">
                                <set attributeName="fill" to="#808080" begin="zoomplus.mouseover" end="zoomplus.mouseout"/>
                        </use>
                        <path d="M-4,0h8M0,-4v8" fill="none" stroke="white" stroke-width="1.5" pointer-events="none"/>
                </g>
                <g id="zoomMin">
                        <use xlink:href="#rim" fill="#404040">
                                <set attributeName="fill" to="#808080" begin="zoomminus.mouseover" end="zoomminus.mouseout"/>
                        </use>
                        <path d="M-4,0h8" fill="none" stroke="white" stroke-width="1.5" pointer-events="none"/>
                </g>
                <g id="dirArrow">
                        <path fill="none" stroke="white" stroke-width="1.5" d="M0,-3.0v7 M-2.5,-0.5L0,-3.0L2.5,-0.5"/>
                </g>
               <g id="resetDef">
                       <use xlink:href="#rim2" fill="#404040">
                               <set attributeName="fill" to="#808080" begin="reset.mouseover" end="reset.mouseout"/>
                       </use>
               </g>
        </defs>

<script type="text/javascript">
var viewWidth = 565;
var viewHeight = 428;
var sectionId = 'dynsection-1';
</script>
<script xlink:href="../../svgpan.js"/>
<svg id="graph" class="graph">
<g id="viewport">
<title>main</title>
<polygon fill="white" stroke="transparent" points="-4,4 -4,-424 561,-424 561,4 -4,4"/>
<!-- Node1 -->
<g id="node1" class="node">
<title>Node1</title>
<g id="a_node1"><a xlink:title="Main function.">
<polygon fill="#bfbfbf" stroke="black" points="0,-286.5 0,-305.5 38,-305.5 38,-286.5 0,-286.5"/>
<text text-anchor="middle" x="19" y="-293.5" font-family="Helvetica,sans-Serif" font-size="10.00">main</text>
</a>
</g>
</g>
<!-- Node2 -->
<g id="node2" class="node">
<title>Node2</title>
<g id="a_node2"><a target="_blank" xlink:href="http://en.cppreference.com/w/cpp/container/vector/clear.html#" xlink:title=" ">
<polygon fill="white" stroke="black" points="87.5,-400.5 87.5,-419.5 177.5,-419.5 177.5,-400.5 87.5,-400.5"/>
<text text-anchor="middle" x="132.5" y="-407.5" font-family="Helvetica,sans-Serif" font-size="10.00">std::vector::clear</text>
</a>
</g>
</g>
<!-- Node1&#45;&gt;Node2 -->
<g id="edge1" class="edge">
<title>Node1&#45;&gt;Node2</title>
<path fill="none" stroke="midnightblue" d="M22.86,-305.62C29.03,-324.7 45.39,-367.55 74,-391 76.06,-392.69 78.28,-394.23 80.61,-395.64"/>
<polygon fill="midnightblue" stroke="midnightblue" points="79.48,-399 89.98,-400.42 82.66,-392.76 79.48,-399"/>
</g>
<!-- Node3 -->
<g id="node3" class="node">
<title>Node3</title>
<g id="a_node3"><a target="_blank" xlink:href="http://en.cppreference.com/w/cpp/container/vector/push_back.html#" xlink:title=" ">
<polygon fill="white" stroke="black" points="74,-362.5 74,-381.5 191,-381.5 191,-362.5 74,-362.5"/>
<text text-anchor="middle" x="132.5" y="-369.5" font-family="Helvetica,sans-Serif" font-size="10.00">std::vector::push_back</text>
</a>
</g>
</g>
<!-- Node1&#45;&gt;Node3 -->
<g id="edge2" class="edge">
<title>Node1&#45;&gt;Node3</title>
<path fill="none" stroke="midnightblue" d="M26.91,-305.88C36.23,-318.52 53.98,-340.28 74,-353 77.16,-355.01 80.55,-356.82 84.05,-358.46"/>
<polygon fill="midnightblue" stroke="midnightblue" points="82.9,-361.77 93.48,-362.4 85.6,-355.31 82.9,-361.77"/>
</g>
<!-- Node4 -->
<g id="node4" class="node">
<title>Node4</title>
<g id="a_node4"><a target="_blank" xlink:href="http://en.cppreference.com/w/cpp/numeric/random/rand.html#" xlink:title=" ">
<polygon fill="white" stroke="black" points="105,-324.5 105,-343.5 160,-343.5 160,-324.5 105,-324.5"/>
<text text-anchor="middle" x="132.5" y="-331.5" font-family="Helvetica,sans-Serif" font-size="10.00">std::rand</text>
</a>
</g>
</g>
<!-- Node1&#45;&gt;Node4 -->
<g id="edge3" class="edge">
<title>Node1&#45;&gt;Node4</title>
<path fill="none" stroke="midnightblue" d="M38.46,-302.6C48.88,-306.29 62.15,-310.96 74,-315 80.75,-317.3 87.97,-319.72 94.92,-322.03"/>
<polygon fill="midnightblue" stroke="midnightblue" points="94.25,-325.49 104.84,-325.31 96.44,-318.85 94.25,-325.49"/>
</g>
<!-- Node5 -->
<g id="node5" class="node">
<title>Node5</title>
<g id="a_node5"><a target="_blank" xlink:href="http://en.cppreference.com/w/cpp/container/vector/reserve.html#" xlink:title=" ">
<polygon fill="white" stroke="black" points="81.5,-286.5 81.5,-305.5 183.5,-305.5 183.5,-286.5 81.5,-286.5"/>
<text text-anchor="middle" x="132.5" y="-293.5" font-family="Helvetica,sans-Serif" font-size="10.00">std::vector::reserve</text>
</a>
</g>
</g>
<!-- Node1&#45;&gt;Node5 -->
<g id="edge4" class="edge">
<title>Node1&#45;&gt;Node5</title>
<path fill="none" stroke="midnightblue" d="M38.41,-296C47.59,-296 59.28,-296 71.24,-296"/>
<polygon fill="midnightblue" stroke="midnightblue" points="71.3,-299.5 81.3,-296 71.3,-292.5 71.3,-299.5"/>
</g>
<!-- Node6 -->
<g id="node6" class="node">
<title>Node6</title>
<g id="a_node6"><a target="_blank" xlink:href="http://en.cppreference.com/w/cpp/numeric/random/srand.html#" xlink:title=" ">
<polygon fill="white" stroke="black" points="102.5,-248.5 102.5,-267.5 162.5,-267.5 162.5,-248.5 102.5,-248.5"/>
<text text-anchor="middle" x="132.5" y="-255.5" font-family="Helvetica,sans-Serif" font-size="10.00">std::srand</text>
</a>
</g>
</g>
<!-- Node1&#45;&gt;Node6 -->
<g id="edge5" class="edge">
<title>Node1&#45;&gt;Node6</title>
<path fill="none" stroke="midnightblue" d="M38.46,-289.4C48.88,-285.71 62.15,-281.04 74,-277 80.01,-274.95 86.38,-272.81 92.61,-270.74"/>
<polygon fill="midnightblue" stroke="midnightblue" points="93.82,-274.02 102.21,-267.56 91.62,-267.38 93.82,-274.02"/>
</g>
<!-- Node7 -->
<g id="node7" class="node">
<title>Node7</title>
<g id="a_node7"><a xlink:href="../../d1/ded/windowed__median_8cpp.html#a6dc652a36ea42ba262c4e4236e3e6601" target="_top" xlink:title="A testing function.">
<polygon fill="white" stroke="black" points="116,-210.5 116,-229.5 149,-229.5 149,-210.5 116,-210.5"/>
<text text-anchor="middle" x="132.5" y="-217.5" font-family="Helvetica,sans-Serif" font-size="10.00">test</text>
</a>
</g>
</g>
<!-- Node1&#45;&gt;Node7 -->
<g id="edge6" class="edge">
<title>Node1&#45;&gt;Node7</title>
<path fill="none" stroke="midnightblue" d="M26.91,-286.12C36.23,-273.48 53.98,-251.72 74,-239 83.72,-232.83 95.64,-228.46 106.11,-225.48"/>
<polygon fill="midnightblue" stroke="midnightblue" points="107.14,-228.83 115.95,-222.95 105.4,-222.05 107.14,-228.83"/>
</g>
<!-- Node18 -->
<g id="node18" class="node">
<title>Node18</title>
<g id="a_node18"><a target="_blank" xlink:href="http://en.cppreference.com/w/cpp/chrono/c/time.html#" xlink:title=" ">
<polygon fill="white" stroke="black" points="105.5,-172.5 105.5,-191.5 159.5,-191.5 159.5,-172.5 105.5,-172.5"/>
<text text-anchor="middle" x="132.5" y="-179.5" font-family="Helvetica,sans-Serif" font-size="10.00">std::time</text>
</a>
</g>
</g>
<!-- Node1&#45;&gt;Node18 -->
<g id="edge17" class="edge">
<title>Node1&#45;&gt;Node18</title>
<path fill="none" stroke="midnightblue" d="M22.86,-286.38C29.03,-267.3 45.39,-224.45 74,-201 80.29,-195.85 88.03,-192.07 95.76,-189.31"/>
<polygon fill="midnightblue" stroke="midnightblue" points="96.92,-192.62 105.45,-186.34 94.87,-185.93 96.92,-192.62"/>
</g>
<!-- Node8 -->
<g id="node8" class="node">
<title>Node8</title>
<g id="a_node8"><a xlink:href="../../d6/dda/classprobability_1_1_windowed_median.html#af844e90e60c73379faa40cdfecf911be" target="_top" xlink:title="Gets the median of the values in the sliding window.">
<polygon fill="white" stroke="black" points="227,-254 227,-284 374,-284 374,-254 227,-254"/>
<text text-anchor="start" x="235" y="-272" font-family="Helvetica,sans-Serif" font-size="10.00">probability::WindowedMedian</text>
<text text-anchor="middle" x="300.5" y="-261" font-family="Helvetica,sans-Serif" font-size="10.00">::getMedian</text>
</a>
</g>
</g>
<!-- Node7&#45;&gt;Node8 -->
<g id="edge7" class="edge">
<title>Node7&#45;&gt;Node8</title>
<path fill="none" stroke="midnightblue" d="M149.12,-224.61C169.52,-230.63 206.45,-241.53 238.6,-251.02"/>
<polygon fill="midnightblue" stroke="midnightblue" points="237.82,-254.44 248.4,-253.92 239.8,-247.73 237.82,-254.44"/>
</g>
<!-- Node9 -->
<g id="node9" class="node">
<title>Node9</title>
<g id="a_node9"><a xlink:href="../../d6/dda/classprobability_1_1_windowed_median.html#a572eec9183bdbe921ccfbeb14fd0c088" target="_top" xlink:title="A naive and inefficient method to obtain the median of the sliding window. Used for testing!">
<polygon fill="white" stroke="black" points="227,-205 227,-235 374,-235 374,-205 227,-205"/>
<text text-anchor="start" x="235" y="-223" font-family="Helvetica,sans-Serif" font-size="10.00">probability::WindowedMedian</text>
<text text-anchor="middle" x="300.5" y="-212" font-family="Helvetica,sans-Serif" font-size="10.00">::getMedianNaive</text>
</a>
</g>
</g>
<!-- Node7&#45;&gt;Node9 -->
<g id="edge8" class="edge">
<title>Node7&#45;&gt;Node9</title>
<path fill="none" stroke="midnightblue" d="M149.12,-220C164.93,-220 190.68,-220 216.43,-220"/>
<polygon fill="midnightblue" stroke="midnightblue" points="216.66,-223.5 226.66,-220 216.66,-216.5 216.66,-223.5"/>
</g>
<!-- Node11 -->
<g id="node11" class="node">
<title>Node11</title>
<g id="a_node11"><a xlink:href="../../d6/dda/classprobability_1_1_windowed_median.html#a8c7c36df20a05b0533a4e65646a178b3" target="_top" xlink:title="Insert a new value to the stream.">
<polygon fill="white" stroke="black" points="227,-115 227,-145 374,-145 374,-115 227,-115"/>
<text text-anchor="start" x="235" y="-133" font-family="Helvetica,sans-Serif" font-size="10.00">probability::WindowedMedian</text>
<text text-anchor="middle" x="300.5" y="-122" font-family="Helvetica,sans-Serif" font-size="10.00">::insert</text>
</a>
</g>
</g>
<!-- Node7&#45;&gt;Node11 -->
<g id="edge10" class="edge">
<title>Node7&#45;&gt;Node11</title>
<path fill="none" stroke="midnightblue" d="M149.06,-216.05C160.87,-212.77 177.36,-207.58 191,-201 219.87,-187.08 250.19,-166.68 271.42,-151.32"/>
<polygon fill="midnightblue" stroke="midnightblue" points="273.65,-154.02 279.64,-145.28 269.51,-148.37 273.65,-154.02"/>
</g>
<!-- Node10 -->
<g id="node10" class="node">
<title>Node10</title>
<g id="a_node10"><a target="_blank" xlink:href="http://en.cppreference.com/w/cpp/container/list/sort.html#" xlink:title=" ">
<polygon fill="white" stroke="black" points="448.5,-252.5 448.5,-271.5 518.5,-271.5 518.5,-252.5 448.5,-252.5"/>
<text text-anchor="middle" x="483.5" y="-259.5" font-family="Helvetica,sans-Serif" font-size="10.00">std::list::sort</text>
</a>
</g>
</g>
<!-- Node9&#45;&gt;Node10 -->
<g id="edge9" class="edge">
<title>Node9&#45;&gt;Node10</title>
<path fill="none" stroke="midnightblue" d="M366.33,-235.04C390.24,-240.59 416.75,-246.74 438.4,-251.77"/>
<polygon fill="midnightblue" stroke="midnightblue" points="437.76,-255.21 448.3,-254.06 439.35,-248.39 437.76,-255.21"/>
</g>
<!-- Node12 -->
<g id="node12" class="node">
<title>Node12</title>
<g id="a_node12"><a xlink:href="../../d6/dda/classprobability_1_1_windowed_median.html#ac1fa194c35fe54e7913185b8df5de097" target="_top" xlink:title="Erases a value from a sorted multi&#45;value BST.">
<polygon fill="white" stroke="black" points="410,-203 410,-233 557,-233 557,-203 410,-203"/>
<text text-anchor="start" x="418" y="-221" font-family="Helvetica,sans-Serif" font-size="10.00">probability::WindowedMedian</text>
<text text-anchor="middle" x="483.5" y="-210" font-family="Helvetica,sans-Serif" font-size="10.00">::eraseFromSorted</text>
</a>
</g>
</g>
<!-- Node11&#45;&gt;Node12 -->
<g id="edge11" class="edge">
<title>Node11&#45;&gt;Node12</title>
<path fill="none" stroke="midnightblue" d="M324.5,-145.12C346,-158.82 379.3,-178.95 410,-193 414.72,-195.16 419.69,-197.24 424.71,-199.22"/>
<polygon fill="midnightblue" stroke="midnightblue" points="423.81,-202.62 434.4,-202.89 426.29,-196.07 423.81,-202.62"/>
</g>
<!-- Node13 -->
<g id="node13" class="node">
<title>Node13</title>
<g id="a_node13"><a target="_blank" xlink:href="http://en.cppreference.com/w/cpp/container/list/front.html#" xlink:title=" ">
<polygon fill="white" stroke="black" points="447,-164.5 447,-183.5 520,-183.5 520,-164.5 447,-164.5"/>
<text text-anchor="middle" x="483.5" y="-171.5" font-family="Helvetica,sans-Serif" font-size="10.00">std::list::front</text>
</a>
</g>
</g>
<!-- Node11&#45;&gt;Node13 -->
<g id="edge12" class="edge">
<title>Node11&#45;&gt;Node13</title>
<path fill="none" stroke="midnightblue" d="M363.28,-145.02C387.44,-150.89 414.64,-157.5 436.95,-162.93"/>
<polygon fill="midnightblue" stroke="midnightblue" points="436.29,-166.37 446.83,-165.33 437.94,-159.57 436.29,-166.37"/>
</g>
<!-- Node14 -->
<g id="node14" class="node">
<title>Node14</title>
<g id="a_node14"><a xlink:href="../../d6/dda/classprobability_1_1_windowed_median.html#a1d04e16e1c74b1f5b56aaf31d8409c4d" target="_top" xlink:title="Inserts a value to a sorted multi&#45;value BST.">
<polygon fill="white" stroke="black" points="410,-115 410,-145 557,-145 557,-115 410,-115"/>
<text text-anchor="start" x="418" y="-133" font-family="Helvetica,sans-Serif" font-size="10.00">probability::WindowedMedian</text>
<text text-anchor="middle" x="483.5" y="-122" font-family="Helvetica,sans-Serif" font-size="10.00">::insertToSorted</text>
</a>
</g>
</g>
<!-- Node11&#45;&gt;Node14 -->
<g id="edge13" class="edge">
<title>Node11&#45;&gt;Node14</title>
<path fill="none" stroke="midnightblue" d="M374.08,-130C382.56,-130 391.26,-130 399.87,-130"/>
<polygon fill="midnightblue" stroke="midnightblue" points="399.91,-133.5 409.91,-130 399.91,-126.5 399.91,-133.5"/>
</g>
<!-- Node15 -->
<g id="node15" class="node">
<title>Node15</title>
<g id="a_node15"><a target="_blank" xlink:href="http://en.cppreference.com/w/cpp/container/list/pop_front.html#" xlink:title=" ">
<polygon fill="white" stroke="black" points="436,-76.5 436,-95.5 531,-95.5 531,-76.5 436,-76.5"/>
<text text-anchor="middle" x="483.5" y="-83.5" font-family="Helvetica,sans-Serif" font-size="10.00">std::list::pop_front</text>
</a>
</g>
</g>
<!-- Node11&#45;&gt;Node15 -->
<g id="edge14" class="edge">
<title>Node11&#45;&gt;Node15</title>
<path fill="none" stroke="midnightblue" d="M363.28,-114.98C386.18,-109.41 411.82,-103.18 433.43,-97.93"/>
<polygon fill="midnightblue" stroke="midnightblue" points="434.48,-101.28 443.37,-95.51 432.83,-94.47 434.48,-101.28"/>
</g>
<!-- Node16 -->
<g id="node16" class="node">
<title>Node16</title>
<g id="a_node16"><a target="_blank" xlink:href="http://en.cppreference.com/w/cpp/container/list/push_back.html#" xlink:title=" ">
<polygon fill="white" stroke="black" points="432.5,-38.5 432.5,-57.5 534.5,-57.5 534.5,-38.5 432.5,-38.5"/>
<text text-anchor="middle" x="483.5" y="-45.5" font-family="Helvetica,sans-Serif" font-size="10.00">std::list::push_back</text>
</a>
</g>
</g>
<!-- Node11&#45;&gt;Node16 -->
<g id="edge15" class="edge">
<title>Node11&#45;&gt;Node16</title>
<path fill="none" stroke="midnightblue" d="M323.45,-114.87C344.74,-100.78 378.39,-80.04 410,-67 415.84,-64.59 422.08,-62.41 428.34,-60.46"/>
<polygon fill="midnightblue" stroke="midnightblue" points="429.55,-63.76 438.17,-57.59 427.59,-57.04 429.55,-63.76"/>
</g>
<!-- Node17 -->
<g id="node17" class="node">
<title>Node17</title>
<g id="a_node17"><a target="_blank" xlink:href="http://en.cppreference.com/w/cpp/container/list/size.html#" xlink:title=" ">
<polygon fill="white" stroke="black" points="448,-0.5 448,-19.5 519,-19.5 519,-0.5 448,-0.5"/>
<text text-anchor="middle" x="483.5" y="-7.5" font-family="Helvetica,sans-Serif" font-size="10.00">std::list::size</text>
</a>
</g>
</g>
<!-- Node11&#45;&gt;Node17 -->
<g id="edge16" class="edge">
<title>Node11&#45;&gt;Node17</title>
<path fill="none" stroke="midnightblue" d="M313.47,-114.85C331.85,-92.65 369.19,-51.45 410,-29 418.63,-24.25 428.5,-20.65 438.11,-17.93"/>
<polygon fill="midnightblue" stroke="midnightblue" points="439.16,-21.28 447.98,-15.41 437.43,-14.5 439.16,-21.28"/>
</g>
</g>
</svg>
        <g id="navigator" transform="translate(0 0)" fill="#404254">
                <rect fill="#f2f5e9" fill-opacity="0.5" stroke="#606060" stroke-width=".5" x="0" y="0" width="60" height="60"/>
                <use id="zoomplus" xlink:href="#zoomPlus" x="17" y="9" onmousedown="handleZoom(evt,'in')"/>
                <use id="zoomminus" xlink:href="#zoomMin" x="42" y="9" onmousedown="handleZoom(evt,'out')"/>
                <use id="reset" xlink:href="#resetDef" x="30" y="36" onmousedown="handleReset()"/>
                <g id="arrowUp" xlink:href="#dirArrow" transform="translate(30 24)" onmousedown="handlePan(0,-1)">
                  <use xlink:href="#rim" fill="#404040">
                        <set attributeName="fill" to="#808080" begin="arrowUp.mouseover" end="arrowUp.mouseout"/>
                  </use>
                  <path fill="none" stroke="white" stroke-width="1.5" d="M0,-3.0v7 M-2.5,-0.5L0,-3.0L2.5,-0.5"/>
                </g>
                <g id="arrowRight" xlink:href="#dirArrow" transform="rotate(90) translate(36 -43)" onmousedown="handlePan(1,0)">
                  <use xlink:href="#rim" fill="#404040">
                        <set attributeName="fill" to="#808080" begin="arrowRight.mouseover" end="arrowRight.mouseout"/>
                  </use>
                  <path fill="none" stroke="white" stroke-width="1.5" d="M0,-3.0v7 M-2.5,-0.5L0,-3.0L2.5,-0.5"/>
                </g>
                <g id="arrowDown" xlink:href="#dirArrow" transform="rotate(180) translate(-30 -48)" onmousedown="handlePan(0,1)">
                  <use xlink:href="#rim" fill="#404040">
                        <set attributeName="fill" to="#808080" begin="arrowDown.mouseover" end="arrowDown.mouseout"/>
                  </use>
                  <path fill="none" stroke="white" stroke-width="1.5" d="M0,-3.0v7 M-2.5,-0.5L0,-3.0L2.5,-0.5"/>
                </g>
                <g id="arrowLeft" xlink:href="#dirArrow" transform="rotate(270) translate(-36 17)" onmousedown="handlePan(-1,0)">
                  <use xlink:href="#rim" fill="#404040">
                        <set attributeName="fill" to="#808080" begin="arrowLeft.mouseover" end="arrowLeft.mouseout"/>
                  </use>
                  <path fill="none" stroke="white" stroke-width="1.5" d="M0,-3.0v7 M-2.5,-0.5L0,-3.0L2.5,-0.5"/>
                </g>
        </g>
        <svg viewBox="0 0 15 15" width="100%" height="30px" preserveAspectRatio="xMaxYMin meet">
         <g id="arrow_out" transform="scale(0.3 0.3)">
          <a xlink:href="windowed__median_8cpp_ac0f2228420376f4db7e1274f2b41667c_cgraph_org.svg" target="_base">
           <rect id="button" ry="5" rx="5" y="6" x="6" height="38" width="38"
                fill="#f2f5e9" fill-opacity="0.5" stroke="#606060" stroke-width="1.0"/>
           <path id="arrow"
             d="M 11.500037,31.436501 C 11.940474,20.09759 22.043105,11.32322 32.158766,21.979434 L 37.068811,17.246167 C 37.068811,17.246167 37.088388,32 37.088388,32 L 22.160133,31.978069 C 22.160133,31.978069 26.997745,27.140456 26.997745,27.140456 C 18.528582,18.264221 13.291696,25.230495 11.500037,31.436501 z"
             style="fill:#404040;"/>
          </a>
         </g>
        </svg>
</svg>
