<?xml version="1.0" encoding="UTF-8" standalone="no"?>
<!DOCTYPE svg PUBLIC "-//W3C//DTD SVG 1.1//EN"
 "http://www.w3.org/Graphics/SVG/1.1/DTD/svg11.dtd">
<!-- Generated by graphviz version 2.49.1 (20210923.0004)
 -->
<!-- Title: test Pages: 1 -->
<svg width="407pt" height="293pt"
 viewBox="0.00 0.00 407.00 292.50" xmlns="http://www.w3.org/2000/svg" xmlns:xlink="http://www.w3.org/1999/xlink">
<g id="graph0" class="graph" transform="scale(1 1) rotate(0) translate(4 288.5)">
<title>test</title>
<polygon fill="white" stroke="transparent" points="-4,4 -4,-288.5 403,-288.5 403,4 -4,4"/>
<!-- Node1 -->
<g id="node1" class="node">
<title>Node1</title>
<g id="a_node1"><a xlink:title="A testing function.">
<polygon fill="#bfbfbf" stroke="black" points="0,-210.5 0,-229.5 33,-229.5 33,-210.5 0,-210.5"/>
<text text-anchor="middle" x="16.5" y="-217.5" font-family="Helvetica,sans-Serif" font-size="10.00">test</text>
</a>
</g>
</g>
<!-- Node2 -->
<g id="node2" class="node">
<title>Node2</title>
<g id="a_node2"><a xlink:href="../../d6/dda/classprobability_1_1_windowed_median.html#af844e90e60c73379faa40cdfecf911be" target="_top" xlink:title="Gets the median of the values in the sliding window.">
<polygon fill="white" stroke="black" points="69,-254 69,-284 216,-284 216,-254 69,-254"/>
<text text-anchor="start" x="77" y="-272" font-family="Helvetica,sans-Serif" font-size="10.00">probability::WindowedMedian</text>
<text text-anchor="middle" x="142.5" y="-261" font-family="Helvetica,sans-Serif" font-size="10.00">::getMedian</text>
</a>
</g>
</g>
<!-- Node1&#45;&gt;Node2 -->
<g id="edge1" class="edge">
<title>Node1&#45;&gt;Node2</title>
<path fill="none" stroke="midnightblue" d="M33.03,-228.21C43.13,-233.37 56.66,-239.99 69,-245 73.64,-246.89 78.49,-248.74 83.39,-250.52"/>
<polygon fill="midnightblue" stroke="midnightblue" points="82.22,-253.82 92.82,-253.87 84.57,-247.23 82.22,-253.82"/>
</g>
<!-- Node3 -->
<g id="node3" class="node">
<title>Node3</title>
<g id="a_node3"><a xlink:href="../../d6/dda/classprobability_1_1_windowed_median.html#a572eec9183bdbe921ccfbeb14fd0c088" target="_top" xlink:title="A naive and inefficient method to obtain the median of the sliding window. Used for testing!">
<polygon fill="white" stroke="black" points="69,-205 69,-235 216,-235 216,-205 69,-205"/>
<text text-anchor="start" x="77" y="-223" font-family="Helvetica,sans-Serif" font-size="10.00">probability::WindowedMedian</text>
<text text-anchor="middle" x="142.5" y="-212" font-family="Helvetica,sans-Serif" font-size="10.00">::getMedianNaive</text>
</a>
</g>
</g>
<!-- Node1&#45;&gt;Node3 -->
<g id="edge2" class="edge">
<title>Node1&#45;&gt;Node3</title>
<path fill="none" stroke="midnightblue" d="M33.2,-220C40.22,-220 49.07,-220 58.67,-220"/>
<polygon fill="midnightblue" stroke="midnightblue" points="58.91,-223.5 68.91,-220 58.91,-216.5 58.91,-223.5"/>
</g>
<!-- Node5 -->
<g id="node5" class="node">
<title>Node5</title>
<g id="a_node5"><a xlink:href="../../d6/dda/classprobability_1_1_windowed_median.html#a8c7c36df20a05b0533a4e65646a178b3" target="_top" xlink:title="Insert a new value to the stream.">
<polygon fill="white" stroke="black" points="69,-115 69,-145 216,-145 216,-115 69,-115"/>
<text text-anchor="start" x="77" y="-133" font-family="Helvetica,sans-Serif" font-size="10.00">probability::WindowedMedian</text>
<text text-anchor="middle" x="142.5" y="-122" font-family="Helvetica,sans-Serif" font-size="10.00">::insert</text>
</a>
</g>
</g>
<!-- Node1&#45;&gt;Node5 -->
<g id="edge4" class="edge">
<title>Node1&#45;&gt;Node5</title>
<path fill="none" stroke="midnightblue" d="M30.77,-210.37C50.08,-196.35 86.42,-169.97 112.2,-151.26"/>
<polygon fill="midnightblue" stroke="midnightblue" points="114.46,-153.95 120.5,-145.24 110.35,-148.28 114.46,-153.95"/>
</g>
<!-- Node4 -->
<g id="node4" class="node">
<title>Node4</title>
<g id="a_node4"><a target="_blank" xlink:href="http://en.cppreference.com/w/cpp/container/list/sort.html#" xlink:title=" ">
<polygon fill="white" stroke="black" points="290.5,-252.5 290.5,-271.5 360.5,-271.5 360.5,-252.5 290.5,-252.5"/>
<text text-anchor="middle" x="325.5" y="-259.5" font-family="Helvetica,sans-Serif" font-size="10.00">std::list::sort</text>
</a>
</g>
</g>
<!-- Node3&#45;&gt;Node4 -->
<g id="edge3" class="edge">
<title>Node3&#45;&gt;Node4</title>
<path fill="none" stroke="midnightblue" d="M208.33,-235.04C232.24,-240.59 258.75,-246.74 280.4,-251.77"/>
<polygon fill="midnightblue" stroke="midnightblue" points="279.76,-255.21 290.3,-254.06 281.35,-248.39 279.76,-255.21"/>
</g>
<!-- Node6 -->
<g id="node6" class="node">
<title>Node6</title>
<g id="a_node6"><a xlink:href="../../d6/dda/classprobability_1_1_windowed_median.html#ac1fa194c35fe54e7913185b8df5de097" target="_top" xlink:title="Erases a value from a sorted multi&#45;value BST.">
<polygon fill="white" stroke="black" points="252,-203 252,-233 399,-233 399,-203 252,-203"/>
<text text-anchor="start" x="260" y="-221" font-family="Helvetica,sans-Serif" font-size="10.00">probability::WindowedMedian</text>
<text text-anchor="middle" x="325.5" y="-210" font-family="Helvetica,sans-Serif" font-size="10.00">::eraseFromSorted</text>
</a>
</g>
</g>
<!-- Node5&#45;&gt;Node6 -->
<g id="edge5" class="edge">
<title>Node5&#45;&gt;Node6</title>
<path fill="none" stroke="midnightblue" d="M166.5,-145.12C188,-158.82 221.3,-178.95 252,-193 256.72,-195.16 261.69,-197.24 266.71,-199.22"/>
<polygon fill="midnightblue" stroke="midnightblue" points="265.81,-202.62 276.4,-202.89 268.29,-196.07 265.81,-202.62"/>
</g>
<!-- Node7 -->
<g id="node7" class="node">
<title>Node7</title>
<g id="a_node7"><a target="_blank" xlink:href="http://en.cppreference.com/w/cpp/container/list/front.html#" xlink:title=" ">
<polygon fill="white" stroke="black" points="289,-164.5 289,-183.5 362,-183.5 362,-164.5 289,-164.5"/>
<text text-anchor="middle" x="325.5" y="-171.5" font-family="Helvetica,sans-Serif" font-size="10.00">std::list::front</text>
</a>
</g>
</g>
<!-- Node5&#45;&gt;Node7 -->
<g id="edge6" class="edge">
<title>Node5&#45;&gt;Node7</title>
<path fill="none" stroke="midnightblue" d="M205.28,-145.02C229.44,-150.89 256.64,-157.5 278.95,-162.93"/>
<polygon fill="midnightblue" stroke="midnightblue" points="278.29,-166.37 288.83,-165.33 279.94,-159.57 278.29,-166.37"/>
</g>
<!-- Node8 -->
<g id="node8" class="node">
<title>Node8</title>
<g id="a_node8"><a xlink:href="../../d6/dda/classprobability_1_1_windowed_median.html#a1d04e16e1c74b1f5b56aaf31d8409c4d" target="_top" xlink:title="Inserts a value to a sorted multi&#45;value BST.">
<polygon fill="white" stroke="black" points="252,-115 252,-145 399,-145 399,-115 252,-115"/>
<text text-anchor="start" x="260" y="-133" font-family="Helvetica,sans-Serif" font-size="10.00">probability::WindowedMedian</text>
<text text-anchor="middle" x="325.5" y="-122" font-family="Helvetica,sans-Serif" font-size="10.00">::insertToSorted</text>
</a>
</g>
</g>
<!-- Node5&#45;&gt;Node8 -->
<g id="edge7" class="edge">
<title>Node5&#45;&gt;Node8</title>
<path fill="none" stroke="midnightblue" d="M216.08,-130C224.56,-130 233.26,-130 241.87,-130"/>
<polygon fill="midnightblue" stroke="midnightblue" points="241.91,-133.5 251.91,-130 241.91,-126.5 241.91,-133.5"/>
</g>
<!-- Node9 -->
<g id="node9" class="node">
<title>Node9</title>
<g id="a_node9"><a target="_blank" xlink:href="http://en.cppreference.com/w/cpp/container/list/pop_front.html#" xlink:title=" ">
<polygon fill="white" stroke="black" points="278,-76.5 278,-95.5 373,-95.5 373,-76.5 278,-76.5"/>
<text text-anchor="middle" x="325.5" y="-83.5" font-family="Helvetica,sans-Serif" font-size="10.00">std::list::pop_front</text>
</a>
</g>
</g>
<!-- Node5&#45;&gt;Node9 -->
<g id="edge8" class="edge">
<title>Node5&#45;&gt;Node9</title>
<path fill="none" stroke="midnightblue" d="M205.28,-114.98C228.18,-109.41 253.82,-103.18 275.43,-97.93"/>
<polygon fill="midnightblue" stroke="midnightblue" points="276.48,-101.28 285.37,-95.51 274.83,-94.47 276.48,-101.28"/>
</g>
<!-- Node10 -->
<g id="node10" class="node">
<title>Node10</title>
<g id="a_node10"><a target="_blank" xlink:href="http://en.cppreference.com/w/cpp/container/list/push_back.html#" xlink:title=" ">
<polygon fill="white" stroke="black" points="274.5,-38.5 274.5,-57.5 376.5,-57.5 376.5,-38.5 274.5,-38.5"/>
<text text-anchor="middle" x="325.5" y="-45.5" font-family="Helvetica,sans-Serif" font-size="10.00">std::list::push_back</text>
</a>
</g>
</g>
<!-- Node5&#45;&gt;Node10 -->
<g id="edge9" class="edge">
<title>Node5&#45;&gt;Node10</title>
<path fill="none" stroke="midnightblue" d="M165.45,-114.87C186.74,-100.78 220.39,-80.04 252,-67 257.84,-64.59 264.08,-62.41 270.34,-60.46"/>
<polygon fill="midnightblue" stroke="midnightblue" points="271.55,-63.76 280.17,-57.59 269.59,-57.04 271.55,-63.76"/>
</g>
<!-- Node11 -->
<g id="node11" class="node">
<title>Node11</title>
<g id="a_node11"><a target="_blank" xlink:href="http://en.cppreference.com/w/cpp/container/list/size.html#" xlink:title=" ">
<polygon fill="white" stroke="black" points="290,-0.5 290,-19.5 361,-19.5 361,-0.5 290,-0.5"/>
<text text-anchor="middle" x="325.5" y="-7.5" font-family="Helvetica,sans-Serif" font-size="10.00">std::list::size</text>
</a>
</g>
</g>
<!-- Node5&#45;&gt;Node11 -->
<g id="edge10" class="edge">
<title>Node5&#45;&gt;Node11</title>
<path fill="none" stroke="midnightblue" d="M155.47,-114.85C173.85,-92.65 211.19,-51.45 252,-29 260.63,-24.25 270.5,-20.65 280.11,-17.93"/>
<polygon fill="midnightblue" stroke="midnightblue" points="281.16,-21.28 289.98,-15.41 279.43,-14.5 281.16,-21.28"/>
</g>
</g>
</svg>
