<?xml version="1.0" encoding="UTF-8" standalone="no"?>
<!DOCTYPE svg PUBLIC "-//W3C//DTD SVG 1.1//EN"
 "http://www.w3.org/Graphics/SVG/1.1/DTD/svg11.dtd">
<!-- Generated by graphviz version 2.49.1 (20210923.0004)
 -->
<!-- Title: main Pages: 1 -->
<svg width="701pt" height="420pt"
 viewBox="0.00 0.00 701.00 420.00" xmlns="http://www.w3.org/2000/svg" xmlns:xlink="http://www.w3.org/1999/xlink">
<g id="graph0" class="graph" transform="scale(1 1) rotate(0) translate(4 416)">
<title>main</title>
<polygon fill="white" stroke="transparent" points="-4,4 -4,-416 697,-416 697,4 -4,4"/>
<!-- Node1 -->
<g id="node1" class="node">
<title>Node1</title>
<g id="a_node1"><a xlink:title="Main function.">
<polygon fill="#bfbfbf" stroke="black" points="0,-278.5 0,-297.5 38,-297.5 38,-278.5 0,-278.5"/>
<text text-anchor="middle" x="19" y="-285.5" font-family="Helvetica,sans-Serif" font-size="10.00">main</text>
</a>
</g>
</g>
<!-- Node2 -->
<g id="node2" class="node">
<title>Node2</title>
<g id="a_node2"><a target="_blank" xlink:href="http://en.cppreference.com/w/cpp/container/vector/clear.html#" xlink:title=" ">
<polygon fill="white" stroke="black" points="87.5,-392.5 87.5,-411.5 177.5,-411.5 177.5,-392.5 87.5,-392.5"/>
<text text-anchor="middle" x="132.5" y="-399.5" font-family="Helvetica,sans-Serif" font-size="10.00">std::vector::clear</text>
</a>
</g>
</g>
<!-- Node1&#45;&gt;Node2 -->
<g id="edge1" class="edge">
<title>Node1&#45;&gt;Node2</title>
<path fill="none" stroke="midnightblue" d="M22.86,-297.62C29.03,-316.7 45.39,-359.55 74,-383 76.06,-384.69 78.28,-386.23 80.61,-387.64"/>
<polygon fill="midnightblue" stroke="midnightblue" points="79.48,-391 89.98,-392.42 82.66,-384.76 79.48,-391"/>
</g>
<!-- Node3 -->
<g id="node3" class="node">
<title>Node3</title>
<g id="a_node3"><a target="_blank" xlink:href="http://en.cppreference.com/w/cpp/container/vector/push_back.html#" xlink:title=" ">
<polygon fill="white" stroke="black" points="74,-354.5 74,-373.5 191,-373.5 191,-354.5 74,-354.5"/>
<text text-anchor="middle" x="132.5" y="-361.5" font-family="Helvetica,sans-Serif" font-size="10.00">std::vector::push_back</text>
</a>
</g>
</g>
<!-- Node1&#45;&gt;Node3 -->
<g id="edge2" class="edge">
<title>Node1&#45;&gt;Node3</title>
<path fill="none" stroke="midnightblue" d="M26.91,-297.88C36.23,-310.52 53.98,-332.28 74,-345 77.16,-347.01 80.55,-348.82 84.05,-350.46"/>
<polygon fill="midnightblue" stroke="midnightblue" points="82.9,-353.77 93.48,-354.4 85.6,-347.31 82.9,-353.77"/>
</g>
<!-- Node4 -->
<g id="node4" class="node">
<title>Node4</title>
<g id="a_node4"><a target="_blank" xlink:href="http://en.cppreference.com/w/cpp/numeric/random/rand.html#" xlink:title=" ">
<polygon fill="white" stroke="black" points="105,-316.5 105,-335.5 160,-335.5 160,-316.5 105,-316.5"/>
<text text-anchor="middle" x="132.5" y="-323.5" font-family="Helvetica,sans-Serif" font-size="10.00">std::rand</text>
</a>
</g>
</g>
<!-- Node1&#45;&gt;Node4 -->
<g id="edge3" class="edge">
<title>Node1&#45;&gt;Node4</title>
<path fill="none" stroke="midnightblue" d="M38.46,-294.6C48.88,-298.29 62.15,-302.96 74,-307 80.75,-309.3 87.97,-311.72 94.92,-314.03"/>
<polygon fill="midnightblue" stroke="midnightblue" points="94.25,-317.49 104.84,-317.31 96.44,-310.85 94.25,-317.49"/>
</g>
<!-- Node5 -->
<g id="node5" class="node">
<title>Node5</title>
<g id="a_node5"><a target="_blank" xlink:href="http://en.cppreference.com/w/cpp/container/vector/reserve.html#" xlink:title=" ">
<polygon fill="white" stroke="black" points="81.5,-278.5 81.5,-297.5 183.5,-297.5 183.5,-278.5 81.5,-278.5"/>
<text text-anchor="middle" x="132.5" y="-285.5" font-family="Helvetica,sans-Serif" font-size="10.00">std::vector::reserve</text>
</a>
</g>
</g>
<!-- Node1&#45;&gt;Node5 -->
<g id="edge4" class="edge">
<title>Node1&#45;&gt;Node5</title>
<path fill="none" stroke="midnightblue" d="M38.41,-288C47.59,-288 59.28,-288 71.24,-288"/>
<polygon fill="midnightblue" stroke="midnightblue" points="71.3,-291.5 81.3,-288 71.3,-284.5 71.3,-291.5"/>
</g>
<!-- Node6 -->
<g id="node6" class="node">
<title>Node6</title>
<g id="a_node6"><a target="_blank" xlink:href="http://en.cppreference.com/w/cpp/numeric/random/srand.html#" xlink:title=" ">
<polygon fill="white" stroke="black" points="102.5,-240.5 102.5,-259.5 162.5,-259.5 162.5,-240.5 102.5,-240.5"/>
<text text-anchor="middle" x="132.5" y="-247.5" font-family="Helvetica,sans-Serif" font-size="10.00">std::srand</text>
</a>
</g>
</g>
<!-- Node1&#45;&gt;Node6 -->
<g id="edge5" class="edge">
<title>Node1&#45;&gt;Node6</title>
<path fill="none" stroke="midnightblue" d="M38.46,-281.4C48.88,-277.71 62.15,-273.04 74,-269 80.01,-266.95 86.38,-264.81 92.61,-262.74"/>
<polygon fill="midnightblue" stroke="midnightblue" points="93.82,-266.02 102.21,-259.56 91.62,-259.38 93.82,-266.02"/>
</g>
<!-- Node7 -->
<g id="node7" class="node">
<title>Node7</title>
<g id="a_node7"><a xlink:href="../../d1/ded/windowed__median_8cpp.html#a6dc652a36ea42ba262c4e4236e3e6601" target="_top" xlink:title="A testing function.">
<polygon fill="white" stroke="black" points="116,-202.5 116,-221.5 149,-221.5 149,-202.5 116,-202.5"/>
<text text-anchor="middle" x="132.5" y="-209.5" font-family="Helvetica,sans-Serif" font-size="10.00">test</text>
</a>
</g>
</g>
<!-- Node1&#45;&gt;Node7 -->
<g id="edge6" class="edge">
<title>Node1&#45;&gt;Node7</title>
<path fill="none" stroke="midnightblue" d="M26.91,-278.12C36.23,-265.48 53.98,-243.72 74,-231 83.72,-224.83 95.64,-220.46 106.11,-217.48"/>
<polygon fill="midnightblue" stroke="midnightblue" points="107.14,-220.83 115.95,-214.95 105.4,-214.05 107.14,-220.83"/>
</g>
<!-- Node23 -->
<g id="node23" class="node">
<title>Node23</title>
<g id="a_node23"><a target="_blank" xlink:href="http://en.cppreference.com/w/cpp/chrono/c/time.html#" xlink:title=" ">
<polygon fill="white" stroke="black" points="105.5,-164.5 105.5,-183.5 159.5,-183.5 159.5,-164.5 105.5,-164.5"/>
<text text-anchor="middle" x="132.5" y="-171.5" font-family="Helvetica,sans-Serif" font-size="10.00">std::time</text>
</a>
</g>
</g>
<!-- Node1&#45;&gt;Node23 -->
<g id="edge24" class="edge">
<title>Node1&#45;&gt;Node23</title>
<path fill="none" stroke="midnightblue" d="M22.86,-278.38C29.03,-259.3 45.39,-216.45 74,-193 80.29,-187.85 88.03,-184.07 95.76,-181.31"/>
<polygon fill="midnightblue" stroke="midnightblue" points="96.92,-184.62 105.45,-178.34 94.87,-177.93 96.92,-184.62"/>
</g>
<!-- Node8 -->
<g id="node8" class="node">
<title>Node8</title>
<g id="a_node8"><a xlink:href="../../d6/dda/classprobability_1_1_windowed_median.html#af844e90e60c73379faa40cdfecf911be" target="_top" xlink:title="Gets the median of the values in the sliding window.">
<polygon fill="white" stroke="black" points="227,-197 227,-227 374,-227 374,-197 227,-197"/>
<text text-anchor="start" x="235" y="-215" font-family="Helvetica,sans-Serif" font-size="10.00">probability::WindowedMedian</text>
<text text-anchor="middle" x="300.5" y="-204" font-family="Helvetica,sans-Serif" font-size="10.00">::getMedian</text>
</a>
</g>
</g>
<!-- Node7&#45;&gt;Node8 -->
<g id="edge7" class="edge">
<title>Node7&#45;&gt;Node8</title>
<path fill="none" stroke="midnightblue" d="M149.12,-212C164.93,-212 190.68,-212 216.43,-212"/>
<polygon fill="midnightblue" stroke="midnightblue" points="216.66,-215.5 226.66,-212 216.66,-208.5 216.66,-215.5"/>
</g>
<!-- Node10 -->
<g id="node10" class="node">
<title>Node10</title>
<g id="a_node10"><a xlink:href="../../d6/dda/classprobability_1_1_windowed_median.html#a572eec9183bdbe921ccfbeb14fd0c088" target="_top" xlink:title="A naive and inefficient method to obtain the median of the sliding window. Used for testing!">
<polygon fill="white" stroke="black" points="227,-265 227,-295 374,-295 374,-265 227,-265"/>
<text text-anchor="start" x="235" y="-283" font-family="Helvetica,sans-Serif" font-size="10.00">probability::WindowedMedian</text>
<text text-anchor="middle" x="300.5" y="-272" font-family="Helvetica,sans-Serif" font-size="10.00">::getMedianNaive</text>
</a>
</g>
</g>
<!-- Node7&#45;&gt;Node10 -->
<g id="edge9" class="edge">
<title>Node7&#45;&gt;Node10</title>
<path fill="none" stroke="midnightblue" d="M149.28,-216.72C160.92,-220.33 177.09,-225.58 191,-231 213.94,-239.94 239.03,-251.17 259.29,-260.63"/>
<polygon fill="midnightblue" stroke="midnightblue" points="257.99,-263.88 268.53,-264.97 260.97,-257.55 257.99,-263.88"/>
</g>
<!-- Node12 -->
<g id="node12" class="node">
<title>Node12</title>
<g id="a_node12"><a xlink:href="../../d6/dda/classprobability_1_1_windowed_median.html#a8c7c36df20a05b0533a4e65646a178b3" target="_top" xlink:title="Insert a new value to the stream.">
<polygon fill="white" stroke="black" points="227,-121 227,-151 374,-151 374,-121 227,-121"/>
<text text-anchor="start" x="235" y="-139" font-family="Helvetica,sans-Serif" font-size="10.00">probability::WindowedMedian</text>
<text text-anchor="middle" x="300.5" y="-128" font-family="Helvetica,sans-Serif" font-size="10.00">::insert</text>
</a>
</g>
</g>
<!-- Node7&#45;&gt;Node12 -->
<g id="edge11" class="edge">
<title>Node7&#45;&gt;Node12</title>
<path fill="none" stroke="midnightblue" d="M149.38,-207.52C161.07,-204.04 177.26,-198.83 191,-193 216.42,-182.21 243.96,-167.71 264.93,-156.03"/>
<polygon fill="midnightblue" stroke="midnightblue" points="266.77,-159.01 273.78,-151.06 263.34,-152.91 266.77,-159.01"/>
</g>
<!-- Node9 -->
<g id="node9" class="node">
<title>Node9</title>
<g id="a_node9"><a target="_blank" xlink:href="http://en.cppreference.com/w/cpp/container/multiset/size.html#" xlink:title=" ">
<polygon fill="white" stroke="black" points="596.5,-202.5 596.5,-221.5 689.5,-221.5 689.5,-202.5 596.5,-202.5"/>
<text text-anchor="middle" x="643" y="-209.5" font-family="Helvetica,sans-Serif" font-size="10.00">std::multiset::size</text>
</a>
</g>
</g>
<!-- Node8&#45;&gt;Node9 -->
<g id="edge8" class="edge">
<title>Node8&#45;&gt;Node9</title>
<path fill="none" stroke="midnightblue" d="M374.13,-212C437.51,-212 528.16,-212 586.05,-212"/>
<polygon fill="midnightblue" stroke="midnightblue" points="586.11,-215.5 596.11,-212 586.11,-208.5 586.11,-215.5"/>
</g>
<!-- Node11 -->
<g id="node11" class="node">
<title>Node11</title>
<g id="a_node11"><a target="_blank" xlink:href="http://en.cppreference.com/w/cpp/container/list/sort.html#" xlink:title=" ">
<polygon fill="white" stroke="black" points="448.5,-290.5 448.5,-309.5 518.5,-309.5 518.5,-290.5 448.5,-290.5"/>
<text text-anchor="middle" x="483.5" y="-297.5" font-family="Helvetica,sans-Serif" font-size="10.00">std::list::sort</text>
</a>
</g>
</g>
<!-- Node10&#45;&gt;Node11 -->
<g id="edge10" class="edge">
<title>Node10&#45;&gt;Node11</title>
<path fill="none" stroke="midnightblue" d="M374.08,-288.02C395.75,-290.41 418.86,-292.97 438.14,-295.1"/>
<polygon fill="midnightblue" stroke="midnightblue" points="437.82,-298.58 448.14,-296.2 438.59,-291.63 437.82,-298.58"/>
</g>
<!-- Node13 -->
<g id="node13" class="node">
<title>Node13</title>
<g id="a_node13"><a xlink:href="../../d6/dda/classprobability_1_1_windowed_median.html#ac1fa194c35fe54e7913185b8df5de097" target="_top" xlink:title="Erases a value from a sorted multi&#45;value BST.">
<polygon fill="white" stroke="black" points="410,-77 410,-107 557,-107 557,-77 410,-77"/>
<text text-anchor="start" x="418" y="-95" font-family="Helvetica,sans-Serif" font-size="10.00">probability::WindowedMedian</text>
<text text-anchor="middle" x="483.5" y="-84" font-family="Helvetica,sans-Serif" font-size="10.00">::eraseFromSorted</text>
</a>
</g>
</g>
<!-- Node12&#45;&gt;Node13 -->
<g id="edge12" class="edge">
<title>Node12&#45;&gt;Node13</title>
<path fill="none" stroke="midnightblue" d="M363.28,-120.98C378.49,-117.28 394.9,-113.29 410.54,-109.49"/>
<polygon fill="midnightblue" stroke="midnightblue" points="411.8,-112.79 420.69,-107.03 410.14,-105.99 411.8,-112.79"/>
</g>
<!-- Node16 -->
<g id="node16" class="node">
<title>Node16</title>
<g id="a_node16"><a target="_blank" xlink:href="http://en.cppreference.com/w/cpp/container/list/front.html#" xlink:title=" ">
<polygon fill="white" stroke="black" points="447,-126.5 447,-145.5 520,-145.5 520,-126.5 447,-126.5"/>
<text text-anchor="middle" x="483.5" y="-133.5" font-family="Helvetica,sans-Serif" font-size="10.00">std::list::front</text>
</a>
</g>
</g>
<!-- Node12&#45;&gt;Node16 -->
<g id="edge16" class="edge">
<title>Node12&#45;&gt;Node16</title>
<path fill="none" stroke="midnightblue" d="M374.08,-136C395.15,-136 417.58,-136 436.54,-136"/>
<polygon fill="midnightblue" stroke="midnightblue" points="436.68,-139.5 446.68,-136 436.68,-132.5 436.68,-139.5"/>
</g>
<!-- Node17 -->
<g id="node17" class="node">
<title>Node17</title>
<g id="a_node17"><a xlink:href="../../d6/dda/classprobability_1_1_windowed_median.html#a1d04e16e1c74b1f5b56aaf31d8409c4d" target="_top" xlink:title="Inserts a value to a sorted multi&#45;value BST.">
<polygon fill="white" stroke="black" points="410,-241 410,-271 557,-271 557,-241 410,-241"/>
<text text-anchor="start" x="418" y="-259" font-family="Helvetica,sans-Serif" font-size="10.00">probability::WindowedMedian</text>
<text text-anchor="middle" x="483.5" y="-248" font-family="Helvetica,sans-Serif" font-size="10.00">::insertToSorted</text>
</a>
</g>
</g>
<!-- Node12&#45;&gt;Node17 -->
<g id="edge17" class="edge">
<title>Node12&#45;&gt;Node17</title>
<path fill="none" stroke="midnightblue" d="M324.42,-151.2C356.52,-172.48 414.96,-211.22 451.09,-235.17"/>
<polygon fill="midnightblue" stroke="midnightblue" points="449.49,-238.32 459.76,-240.93 453.36,-232.48 449.49,-238.32"/>
</g>
<!-- Node20 -->
<g id="node20" class="node">
<title>Node20</title>
<g id="a_node20"><a target="_blank" xlink:href="http://en.cppreference.com/w/cpp/container/list/pop_front.html#" xlink:title=" ">
<polygon fill="white" stroke="black" points="436,-38.5 436,-57.5 531,-57.5 531,-38.5 436,-38.5"/>
<text text-anchor="middle" x="483.5" y="-45.5" font-family="Helvetica,sans-Serif" font-size="10.00">std::list::pop_front</text>
</a>
</g>
</g>
<!-- Node12&#45;&gt;Node20 -->
<g id="edge21" class="edge">
<title>Node12&#45;&gt;Node20</title>
<path fill="none" stroke="midnightblue" d="M321.24,-120.77C342.21,-105.25 376.85,-81.46 410,-67 415.5,-64.6 421.37,-62.45 427.3,-60.53"/>
<polygon fill="midnightblue" stroke="midnightblue" points="428.72,-63.76 437.29,-57.53 426.7,-57.06 428.72,-63.76"/>
</g>
<!-- Node21 -->
<g id="node21" class="node">
<title>Node21</title>
<g id="a_node21"><a target="_blank" xlink:href="http://en.cppreference.com/w/cpp/container/list/push_back.html#" xlink:title=" ">
<polygon fill="white" stroke="black" points="432.5,-0.5 432.5,-19.5 534.5,-19.5 534.5,-0.5 432.5,-0.5"/>
<text text-anchor="middle" x="483.5" y="-7.5" font-family="Helvetica,sans-Serif" font-size="10.00">std::list::push_back</text>
</a>
</g>
</g>
<!-- Node12&#45;&gt;Node21 -->
<g id="edge22" class="edge">
<title>Node12&#45;&gt;Node21</title>
<path fill="none" stroke="midnightblue" d="M312.67,-120.7C330.56,-97.33 367.92,-52.95 410,-29 413.99,-26.73 418.25,-24.73 422.64,-22.96"/>
<polygon fill="midnightblue" stroke="midnightblue" points="424.17,-26.13 432.4,-19.44 421.8,-19.54 424.17,-26.13"/>
</g>
<!-- Node22 -->
<g id="node22" class="node">
<title>Node22</title>
<g id="a_node22"><a target="_blank" xlink:href="http://en.cppreference.com/w/cpp/container/list/size.html#" xlink:title=" ">
<polygon fill="white" stroke="black" points="448,-164.5 448,-183.5 519,-183.5 519,-164.5 448,-164.5"/>
<text text-anchor="middle" x="483.5" y="-171.5" font-family="Helvetica,sans-Serif" font-size="10.00">std::list::size</text>
</a>
</g>
</g>
<!-- Node12&#45;&gt;Node22 -->
<g id="edge23" class="edge">
<title>Node12&#45;&gt;Node22</title>
<path fill="none" stroke="midnightblue" d="M373.04,-151.02C394.91,-155.61 418.34,-160.53 437.88,-164.63"/>
<polygon fill="midnightblue" stroke="midnightblue" points="437.22,-168.07 447.72,-166.7 438.65,-161.22 437.22,-168.07"/>
</g>
<!-- Node13&#45;&gt;Node9 -->
<g id="edge15" class="edge">
<title>Node13&#45;&gt;Node9</title>
<path fill="none" stroke="midnightblue" d="M538.26,-107.03C544.82,-109.86 551.23,-113.17 557,-117 588.31,-137.8 615.49,-172.83 630.24,-194.04"/>
<polygon fill="midnightblue" stroke="midnightblue" points="627.44,-196.14 635.94,-202.46 633.23,-192.21 627.44,-196.14"/>
</g>
<!-- Node14 -->
<g id="node14" class="node">
<title>Node14</title>
<g id="a_node14"><a target="_blank" xlink:href="http://en.cppreference.com/w/cpp/container/multiset/erase.html#" xlink:title=" ">
<polygon fill="white" stroke="black" points="593,-63.5 593,-82.5 693,-82.5 693,-63.5 593,-63.5"/>
<text text-anchor="middle" x="643" y="-70.5" font-family="Helvetica,sans-Serif" font-size="10.00">std::multiset::erase</text>
</a>
</g>
</g>
<!-- Node13&#45;&gt;Node14 -->
<g id="edge13" class="edge">
<title>Node13&#45;&gt;Node14</title>
<path fill="none" stroke="midnightblue" d="M557.26,-83.22C565.85,-82.19 574.54,-81.14 582.92,-80.13"/>
<polygon fill="midnightblue" stroke="midnightblue" points="583.44,-83.59 592.95,-78.92 582.6,-76.64 583.44,-83.59"/>
</g>
<!-- Node15 -->
<g id="node15" class="node">
<title>Node15</title>
<g id="a_node15"><a target="_blank" xlink:href="http://en.cppreference.com/w/cpp/container/multiset/find.html#" xlink:title=" ">
<polygon fill="white" stroke="black" points="597,-101.5 597,-120.5 689,-120.5 689,-101.5 597,-101.5"/>
<text text-anchor="middle" x="643" y="-108.5" font-family="Helvetica,sans-Serif" font-size="10.00">std::multiset::find</text>
</a>
</g>
</g>
<!-- Node13&#45;&gt;Node15 -->
<g id="edge14" class="edge">
<title>Node13&#45;&gt;Node15</title>
<path fill="none" stroke="midnightblue" d="M557.26,-100.78C567.2,-101.98 577.27,-103.19 586.83,-104.35"/>
<polygon fill="midnightblue" stroke="midnightblue" points="586.63,-107.85 596.98,-105.57 587.47,-100.9 586.63,-107.85"/>
</g>
<!-- Node17&#45;&gt;Node9 -->
<g id="edge20" class="edge">
<title>Node17&#45;&gt;Node9</title>
<path fill="none" stroke="midnightblue" d="M538.26,-240.98C557.75,-235.54 579.52,-229.46 598.06,-224.28"/>
<polygon fill="midnightblue" stroke="midnightblue" points="599.02,-227.64 607.71,-221.58 597.14,-220.9 599.02,-227.64"/>
</g>
<!-- Node18 -->
<g id="node18" class="node">
<title>Node18</title>
<g id="a_node18"><a target="_blank" xlink:href="http://en.cppreference.com/w/cpp/container/multiset/begin.html#" xlink:title=" ">
<polygon fill="white" stroke="black" points="593,-281.5 593,-300.5 693,-300.5 693,-281.5 593,-281.5"/>
<text text-anchor="middle" x="643" y="-288.5" font-family="Helvetica,sans-Serif" font-size="10.00">std::multiset::begin</text>
</a>
</g>
</g>
<!-- Node17&#45;&gt;Node18 -->
<g id="edge18" class="edge">
<title>Node17&#45;&gt;Node18</title>
<path fill="none" stroke="midnightblue" d="M552.21,-271.05C564.46,-273.77 577.08,-276.57 588.84,-279.19"/>
<polygon fill="midnightblue" stroke="midnightblue" points="588.4,-282.67 598.92,-281.43 589.92,-275.84 588.4,-282.67"/>
</g>
<!-- Node19 -->
<g id="node19" class="node">
<title>Node19</title>
<g id="a_node19"><a target="_blank" xlink:href="http://en.cppreference.com/w/cpp/container/multiset/insert.html#" xlink:title=" ">
<polygon fill="white" stroke="black" points="593,-243.5 593,-262.5 693,-262.5 693,-243.5 593,-243.5"/>
<text text-anchor="middle" x="643" y="-250.5" font-family="Helvetica,sans-Serif" font-size="10.00">std::multiset::insert</text>
</a>
</g>
</g>
<!-- Node17&#45;&gt;Node19 -->
<g id="edge19" class="edge">
<title>Node17&#45;&gt;Node19</title>
<path fill="none" stroke="midnightblue" d="M557.26,-254.61C565.85,-254.45 574.54,-254.28 582.92,-254.13"/>
<polygon fill="midnightblue" stroke="midnightblue" points="583.02,-257.62 592.95,-253.93 582.88,-250.63 583.02,-257.62"/>
</g>
</g>
</svg>
