<?xml version="1.0" encoding="UTF-8" standalone="no"?>
<!DOCTYPE svg PUBLIC "-//W3C//DTD SVG 1.1//EN"
 "http://www.w3.org/Graphics/SVG/1.1/DTD/svg11.dtd">
<!-- Generated by graphviz version 2.49.1 (20210923.0004)
 -->
<!-- Title: test Pages: 1 -->
<!--zoomable 318 -->
<svg id="main" version="1.1" xmlns="http://www.w3.org/2000/svg" xmlns:xlink="http://www.w3.org/1999/xlink" xml:space="preserve" onload="init(evt)">
<style type="text/css"><![CDATA[
.edge:hover path { stroke: red; }
.edge:hover polygon { stroke: red; fill: red; }
]]></style>
<script type="text/javascript"><![CDATA[
var edges = document.getElementsByTagName('g');
if (edges && edges.length) {
  for (var i=0;i<edges.length;i++) {
    if (edges[i].id.substr(0,4)=='edge') {
      edges[i].setAttribute('class','edge');
    }
  }
}
]]></script>
        <defs>
                <circle id="rim" cx="0" cy="0" r="7"/>
                <circle id="rim2" cx="0" cy="0" r="3.5"/>
                <g id="zoomPlus">
                        <use xlink:href="#rim" fill="#404040">
                                <set attributeName="fill" to="#808080" begin="zoomplus.mouseover" end="zoomplus.mouseout"/>
                        </use>
                        <path d="M-4,0h8M0,-4v8" fill="none" stroke="white" stroke-width="1.5" pointer-events="none"/>
                </g>
                <g id="zoomMin">
                        <use xlink:href="#rim" fill="#404040">
                                <set attributeName="fill" to="#808080" begin="zoomminus.mouseover" end="zoomminus.mouseout"/>
                        </use>
                        <path d="M-4,0h8" fill="none" stroke="white" stroke-width="1.5" pointer-events="none"/>
                </g>
                <g id="dirArrow">
                        <path fill="none" stroke="white" stroke-width="1.5" d="M0,-3.0v7 M-2.5,-0.5L0,-3.0L2.5,-0.5"/>
                </g>
               <g id="resetDef">
                       <use xlink:href="#rim2" fill="#404040">
                               <set attributeName="fill" to="#808080" begin="reset.mouseover" end="reset.mouseout"/>
                       </use>
               </g>
        </defs>

<script type="text/javascript">
var viewWidth = 543;
var viewHeight = 318;
var sectionId = 'dynsection-2';
</script>
<script xlink:href="../../svgpan.js"/>
<svg id="graph" class="graph">
<g id="viewport">
<title>test</title>
<polygon fill="white" stroke="transparent" points="-4,4 -4,-314 539,-314 539,4 -4,4"/>
<!-- Node1 -->
<g id="node1" class="node">
<title>Node1</title>
<g id="a_node1"><a xlink:title="A testing function.">
<polygon fill="#bfbfbf" stroke="black" points="0,-202.5 0,-221.5 33,-221.5 33,-202.5 0,-202.5"/>
<text text-anchor="middle" x="16.5" y="-209.5" font-family="Helvetica,sans-Serif" font-size="10.00">test</text>
</a>
</g>
</g>
<!-- Node2 -->
<g id="node2" class="node">
<title>Node2</title>
<g id="a_node2"><a xlink:href="../../d6/dda/classprobability_1_1_windowed_median.html#af844e90e60c73379faa40cdfecf911be" target="_top" xlink:title="Gets the median of the values in the sliding window.">
<polygon fill="white" stroke="black" points="69,-197 69,-227 216,-227 216,-197 69,-197"/>
<text text-anchor="start" x="77" y="-215" font-family="Helvetica,sans-Serif" font-size="10.00">probability::WindowedMedian</text>
<text text-anchor="middle" x="142.5" y="-204" font-family="Helvetica,sans-Serif" font-size="10.00">::getMedian</text>
</a>
</g>
</g>
<!-- Node1&#45;&gt;Node2 -->
<g id="edge1" class="edge">
<title>Node1&#45;&gt;Node2</title>
<path fill="none" stroke="midnightblue" d="M33.2,-212C40.22,-212 49.07,-212 58.67,-212"/>
<polygon fill="midnightblue" stroke="midnightblue" points="58.91,-215.5 68.91,-212 58.91,-208.5 58.91,-215.5"/>
</g>
<!-- Node4 -->
<g id="node4" class="node">
<title>Node4</title>
<g id="a_node4"><a xlink:href="../../d6/dda/classprobability_1_1_windowed_median.html#a572eec9183bdbe921ccfbeb14fd0c088" target="_top" xlink:title="A naive and inefficient method to obtain the median of the sliding window. Used for testing!">
<polygon fill="white" stroke="black" points="69,-265 69,-295 216,-295 216,-265 69,-265"/>
<text text-anchor="start" x="77" y="-283" font-family="Helvetica,sans-Serif" font-size="10.00">probability::WindowedMedian</text>
<text text-anchor="middle" x="142.5" y="-272" font-family="Helvetica,sans-Serif" font-size="10.00">::getMedianNaive</text>
</a>
</g>
</g>
<!-- Node1&#45;&gt;Node4 -->
<g id="edge3" class="edge">
<title>Node1&#45;&gt;Node4</title>
<path fill="none" stroke="midnightblue" d="M33.2,-220.61C51.23,-230.5 81.4,-247.04 105.32,-260.16"/>
<polygon fill="midnightblue" stroke="midnightblue" points="103.69,-263.26 114.14,-265 107.06,-257.12 103.69,-263.26"/>
</g>
<!-- Node6 -->
<g id="node6" class="node">
<title>Node6</title>
<g id="a_node6"><a xlink:href="../../d6/dda/classprobability_1_1_windowed_median.html#a8c7c36df20a05b0533a4e65646a178b3" target="_top" xlink:title="Insert a new value to the stream.">
<polygon fill="white" stroke="black" points="69,-121 69,-151 216,-151 216,-121 69,-121"/>
<text text-anchor="start" x="77" y="-139" font-family="Helvetica,sans-Serif" font-size="10.00">probability::WindowedMedian</text>
<text text-anchor="middle" x="142.5" y="-128" font-family="Helvetica,sans-Serif" font-size="10.00">::insert</text>
</a>
</g>
</g>
<!-- Node1&#45;&gt;Node6 -->
<g id="edge5" class="edge">
<title>Node1&#45;&gt;Node6</title>
<path fill="none" stroke="midnightblue" d="M33.2,-202.37C52.01,-190.85 84.02,-171.23 108.37,-156.3"/>
<polygon fill="midnightblue" stroke="midnightblue" points="110.26,-159.25 116.96,-151.04 106.6,-153.28 110.26,-159.25"/>
</g>
<!-- Node3 -->
<g id="node3" class="node">
<title>Node3</title>
<g id="a_node3"><a target="_blank" xlink:href="http://en.cppreference.com/w/cpp/container/multiset/size.html#" xlink:title=" ">
<polygon fill="white" stroke="black" points="438.5,-202.5 438.5,-221.5 531.5,-221.5 531.5,-202.5 438.5,-202.5"/>
<text text-anchor="middle" x="485" y="-209.5" font-family="Helvetica,sans-Serif" font-size="10.00">std::multiset::size</text>
</a>
</g>
</g>
<!-- Node2&#45;&gt;Node3 -->
<g id="edge2" class="edge">
<title>Node2&#45;&gt;Node3</title>
<path fill="none" stroke="midnightblue" d="M216.13,-212C279.51,-212 370.16,-212 428.05,-212"/>
<polygon fill="midnightblue" stroke="midnightblue" points="428.11,-215.5 438.11,-212 428.11,-208.5 428.11,-215.5"/>
</g>
<!-- Node5 -->
<g id="node5" class="node">
<title>Node5</title>
<g id="a_node5"><a target="_blank" xlink:href="http://en.cppreference.com/w/cpp/container/list/sort.html#" xlink:title=" ">
<polygon fill="white" stroke="black" points="290.5,-290.5 290.5,-309.5 360.5,-309.5 360.5,-290.5 290.5,-290.5"/>
<text text-anchor="middle" x="325.5" y="-297.5" font-family="Helvetica,sans-Serif" font-size="10.00">std::list::sort</text>
</a>
</g>
</g>
<!-- Node4&#45;&gt;Node5 -->
<g id="edge4" class="edge">
<title>Node4&#45;&gt;Node5</title>
<path fill="none" stroke="midnightblue" d="M216.08,-288.02C237.75,-290.41 260.86,-292.97 280.14,-295.1"/>
<polygon fill="midnightblue" stroke="midnightblue" points="279.82,-298.58 290.14,-296.2 280.59,-291.63 279.82,-298.58"/>
</g>
<!-- Node7 -->
<g id="node7" class="node">
<title>Node7</title>
<g id="a_node7"><a xlink:href="../../d6/dda/classprobability_1_1_windowed_median.html#ac1fa194c35fe54e7913185b8df5de097" target="_top" xlink:title="Erases a value from a sorted multi&#45;value BST.">
<polygon fill="white" stroke="black" points="252,-77 252,-107 399,-107 399,-77 252,-77"/>
<text text-anchor="start" x="260" y="-95" font-family="Helvetica,sans-Serif" font-size="10.00">probability::WindowedMedian</text>
<text text-anchor="middle" x="325.5" y="-84" font-family="Helvetica,sans-Serif" font-size="10.00">::eraseFromSorted</text>
</a>
</g>
</g>
<!-- Node6&#45;&gt;Node7 -->
<g id="edge6" class="edge">
<title>Node6&#45;&gt;Node7</title>
<path fill="none" stroke="midnightblue" d="M205.28,-120.98C220.49,-117.28 236.9,-113.29 252.54,-109.49"/>
<polygon fill="midnightblue" stroke="midnightblue" points="253.8,-112.79 262.69,-107.03 252.14,-105.99 253.8,-112.79"/>
</g>
<!-- Node10 -->
<g id="node10" class="node">
<title>Node10</title>
<g id="a_node10"><a target="_blank" xlink:href="http://en.cppreference.com/w/cpp/container/list/front.html#" xlink:title=" ">
<polygon fill="white" stroke="black" points="289,-126.5 289,-145.5 362,-145.5 362,-126.5 289,-126.5"/>
<text text-anchor="middle" x="325.5" y="-133.5" font-family="Helvetica,sans-Serif" font-size="10.00">std::list::front</text>
</a>
</g>
</g>
<!-- Node6&#45;&gt;Node10 -->
<g id="edge10" class="edge">
<title>Node6&#45;&gt;Node10</title>
<path fill="none" stroke="midnightblue" d="M216.08,-136C237.15,-136 259.58,-136 278.54,-136"/>
<polygon fill="midnightblue" stroke="midnightblue" points="278.68,-139.5 288.68,-136 278.68,-132.5 278.68,-139.5"/>
</g>
<!-- Node11 -->
<g id="node11" class="node">
<title>Node11</title>
<g id="a_node11"><a xlink:href="../../d6/dda/classprobability_1_1_windowed_median.html#a1d04e16e1c74b1f5b56aaf31d8409c4d" target="_top" xlink:title="Inserts a value to a sorted multi&#45;value BST.">
<polygon fill="white" stroke="black" points="252,-241 252,-271 399,-271 399,-241 252,-241"/>
<text text-anchor="start" x="260" y="-259" font-family="Helvetica,sans-Serif" font-size="10.00">probability::WindowedMedian</text>
<text text-anchor="middle" x="325.5" y="-248" font-family="Helvetica,sans-Serif" font-size="10.00">::insertToSorted</text>
</a>
</g>
</g>
<!-- Node6&#45;&gt;Node11 -->
<g id="edge11" class="edge">
<title>Node6&#45;&gt;Node11</title>
<path fill="none" stroke="midnightblue" d="M166.42,-151.2C198.52,-172.48 256.96,-211.22 293.09,-235.17"/>
<polygon fill="midnightblue" stroke="midnightblue" points="291.49,-238.32 301.76,-240.93 295.36,-232.48 291.49,-238.32"/>
</g>
<!-- Node14 -->
<g id="node14" class="node">
<title>Node14</title>
<g id="a_node14"><a target="_blank" xlink:href="http://en.cppreference.com/w/cpp/container/list/pop_front.html#" xlink:title=" ">
<polygon fill="white" stroke="black" points="278,-38.5 278,-57.5 373,-57.5 373,-38.5 278,-38.5"/>
<text text-anchor="middle" x="325.5" y="-45.5" font-family="Helvetica,sans-Serif" font-size="10.00">std::list::pop_front</text>
</a>
</g>
</g>
<!-- Node6&#45;&gt;Node14 -->
<g id="edge15" class="edge">
<title>Node6&#45;&gt;Node14</title>
<path fill="none" stroke="midnightblue" d="M163.24,-120.77C184.21,-105.25 218.85,-81.46 252,-67 257.5,-64.6 263.37,-62.45 269.3,-60.53"/>
<polygon fill="midnightblue" stroke="midnightblue" points="270.72,-63.76 279.29,-57.53 268.7,-57.06 270.72,-63.76"/>
</g>
<!-- Node15 -->
<g id="node15" class="node">
<title>Node15</title>
<g id="a_node15"><a target="_blank" xlink:href="http://en.cppreference.com/w/cpp/container/list/push_back.html#" xlink:title=" ">
<polygon fill="white" stroke="black" points="274.5,-0.5 274.5,-19.5 376.5,-19.5 376.5,-0.5 274.5,-0.5"/>
<text text-anchor="middle" x="325.5" y="-7.5" font-family="Helvetica,sans-Serif" font-size="10.00">std::list::push_back</text>
</a>
</g>
</g>
<!-- Node6&#45;&gt;Node15 -->
<g id="edge16" class="edge">
<title>Node6&#45;&gt;Node15</title>
<path fill="none" stroke="midnightblue" d="M154.67,-120.7C172.56,-97.33 209.92,-52.95 252,-29 255.99,-26.73 260.25,-24.73 264.64,-22.96"/>
<polygon fill="midnightblue" stroke="midnightblue" points="266.17,-26.13 274.4,-19.44 263.8,-19.54 266.17,-26.13"/>
</g>
<!-- Node16 -->
<g id="node16" class="node">
<title>Node16</title>
<g id="a_node16"><a target="_blank" xlink:href="http://en.cppreference.com/w/cpp/container/list/size.html#" xlink:title=" ">
<polygon fill="white" stroke="black" points="290,-164.5 290,-183.5 361,-183.5 361,-164.5 290,-164.5"/>
<text text-anchor="middle" x="325.5" y="-171.5" font-family="Helvetica,sans-Serif" font-size="10.00">std::list::size</text>
</a>
</g>
</g>
<!-- Node6&#45;&gt;Node16 -->
<g id="edge17" class="edge">
<title>Node6&#45;&gt;Node16</title>
<path fill="none" stroke="midnightblue" d="M215.04,-151.02C236.91,-155.61 260.34,-160.53 279.88,-164.63"/>
<polygon fill="midnightblue" stroke="midnightblue" points="279.22,-168.07 289.72,-166.7 280.65,-161.22 279.22,-168.07"/>
</g>
<!-- Node7&#45;&gt;Node3 -->
<g id="edge9" class="edge">
<title>Node7&#45;&gt;Node3</title>
<path fill="none" stroke="midnightblue" d="M380.26,-107.03C386.82,-109.86 393.23,-113.17 399,-117 430.31,-137.8 457.49,-172.83 472.24,-194.04"/>
<polygon fill="midnightblue" stroke="midnightblue" points="469.44,-196.14 477.94,-202.46 475.23,-192.21 469.44,-196.14"/>
</g>
<!-- Node8 -->
<g id="node8" class="node">
<title>Node8</title>
<g id="a_node8"><a target="_blank" xlink:href="http://en.cppreference.com/w/cpp/container/multiset/erase.html#" xlink:title=" ">
<polygon fill="white" stroke="black" points="435,-63.5 435,-82.5 535,-82.5 535,-63.5 435,-63.5"/>
<text text-anchor="middle" x="485" y="-70.5" font-family="Helvetica,sans-Serif" font-size="10.00">std::multiset::erase</text>
</a>
</g>
</g>
<!-- Node7&#45;&gt;Node8 -->
<g id="edge7" class="edge">
<title>Node7&#45;&gt;Node8</title>
<path fill="none" stroke="midnightblue" d="M399.26,-83.22C407.85,-82.19 416.54,-81.14 424.92,-80.13"/>
<polygon fill="midnightblue" stroke="midnightblue" points="425.44,-83.59 434.95,-78.92 424.6,-76.64 425.44,-83.59"/>
</g>
<!-- Node9 -->
<g id="node9" class="node">
<title>Node9</title>
<g id="a_node9"><a target="_blank" xlink:href="http://en.cppreference.com/w/cpp/container/multiset/find.html#" xlink:title=" ">
<polygon fill="white" stroke="black" points="439,-101.5 439,-120.5 531,-120.5 531,-101.5 439,-101.5"/>
<text text-anchor="middle" x="485" y="-108.5" font-family="Helvetica,sans-Serif" font-size="10.00">std::multiset::find</text>
</a>
</g>
</g>
<!-- Node7&#45;&gt;Node9 -->
<g id="edge8" class="edge">
<title>Node7&#45;&gt;Node9</title>
<path fill="none" stroke="midnightblue" d="M399.26,-100.78C409.2,-101.98 419.27,-103.19 428.83,-104.35"/>
<polygon fill="midnightblue" stroke="midnightblue" points="428.63,-107.85 438.98,-105.57 429.47,-100.9 428.63,-107.85"/>
</g>
<!-- Node11&#45;&gt;Node3 -->
<g id="edge14" class="edge">
<title>Node11&#45;&gt;Node3</title>
<path fill="none" stroke="midnightblue" d="M380.26,-240.98C399.75,-235.54 421.52,-229.46 440.06,-224.28"/>
<polygon fill="midnightblue" stroke="midnightblue" points="441.02,-227.64 449.71,-221.58 439.14,-220.9 441.02,-227.64"/>
</g>
<!-- Node12 -->
<g id="node12" class="node">
<title>Node12</title>
<g id="a_node12"><a target="_blank" xlink:href="http://en.cppreference.com/w/cpp/container/multiset/begin.html#" xlink:title=" ">
<polygon fill="white" stroke="black" points="435,-281.5 435,-300.5 535,-300.5 535,-281.5 435,-281.5"/>
<text text-anchor="middle" x="485" y="-288.5" font-family="Helvetica,sans-Serif" font-size="10.00">std::multiset::begin</text>
</a>
</g>
</g>
<!-- Node11&#45;&gt;Node12 -->
<g id="edge12" class="edge">
<title>Node11&#45;&gt;Node12</title>
<path fill="none" stroke="midnightblue" d="M394.21,-271.05C406.46,-273.77 419.08,-276.57 430.84,-279.19"/>
<polygon fill="midnightblue" stroke="midnightblue" points="430.4,-282.67 440.92,-281.43 431.92,-275.84 430.4,-282.67"/>
</g>
<!-- Node13 -->
<g id="node13" class="node">
<title>Node13</title>
<g id="a_node13"><a target="_blank" xlink:href="http://en.cppreference.com/w/cpp/container/multiset/insert.html#" xlink:title=" ">
<polygon fill="white" stroke="black" points="435,-243.5 435,-262.5 535,-262.5 535,-243.5 435,-243.5"/>
<text text-anchor="middle" x="485" y="-250.5" font-family="Helvetica,sans-Serif" font-size="10.00">std::multiset::insert</text>
</a>
</g>
</g>
<!-- Node11&#45;&gt;Node13 -->
<g id="edge13" class="edge">
<title>Node11&#45;&gt;Node13</title>
<path fill="none" stroke="midnightblue" d="M399.26,-254.61C407.85,-254.45 416.54,-254.28 424.92,-254.13"/>
<polygon fill="midnightblue" stroke="midnightblue" points="425.02,-257.62 434.95,-253.93 424.88,-250.63 425.02,-257.62"/>
</g>
</g>
</svg>
        <g id="navigator" transform="translate(0 0)" fill="#404254">
                <rect fill="#f2f5e9" fill-opacity="0.5" stroke="#606060" stroke-width=".5" x="0" y="0" width="60" height="60"/>
                <use id="zoomplus" xlink:href="#zoomPlus" x="17" y="9" onmousedown="handleZoom(evt,'in')"/>
                <use id="zoomminus" xlink:href="#zoomMin" x="42" y="9" onmousedown="handleZoom(evt,'out')"/>
                <use id="reset" xlink:href="#resetDef" x="30" y="36" onmousedown="handleReset()"/>
                <g id="arrowUp" xlink:href="#dirArrow" transform="translate(30 24)" onmousedown="handlePan(0,-1)">
                  <use xlink:href="#rim" fill="#404040">
                        <set attributeName="fill" to="#808080" begin="arrowUp.mouseover" end="arrowUp.mouseout"/>
                  </use>
                  <path fill="none" stroke="white" stroke-width="1.5" d="M0,-3.0v7 M-2.5,-0.5L0,-3.0L2.5,-0.5"/>
                </g>
                <g id="arrowRight" xlink:href="#dirArrow" transform="rotate(90) translate(36 -43)" onmousedown="handlePan(1,0)">
                  <use xlink:href="#rim" fill="#404040">
                        <set attributeName="fill" to="#808080" begin="arrowRight.mouseover" end="arrowRight.mouseout"/>
                  </use>
                  <path fill="none" stroke="white" stroke-width="1.5" d="M0,-3.0v7 M-2.5,-0.5L0,-3.0L2.5,-0.5"/>
                </g>
                <g id="arrowDown" xlink:href="#dirArrow" transform="rotate(180) translate(-30 -48)" onmousedown="handlePan(0,1)">
                  <use xlink:href="#rim" fill="#404040">
                        <set attributeName="fill" to="#808080" begin="arrowDown.mouseover" end="arrowDown.mouseout"/>
                  </use>
                  <path fill="none" stroke="white" stroke-width="1.5" d="M0,-3.0v7 M-2.5,-0.5L0,-3.0L2.5,-0.5"/>
                </g>
                <g id="arrowLeft" xlink:href="#dirArrow" transform="rotate(270) translate(-36 17)" onmousedown="handlePan(-1,0)">
                  <use xlink:href="#rim" fill="#404040">
                        <set attributeName="fill" to="#808080" begin="arrowLeft.mouseover" end="arrowLeft.mouseout"/>
                  </use>
                  <path fill="none" stroke="white" stroke-width="1.5" d="M0,-3.0v7 M-2.5,-0.5L0,-3.0L2.5,-0.5"/>
                </g>
        </g>
        <svg viewBox="0 0 15 15" width="100%" height="30px" preserveAspectRatio="xMaxYMin meet">
         <g id="arrow_out" transform="scale(0.3 0.3)">
          <a xlink:href="windowed__median_8cpp_a6dc652a36ea42ba262c4e4236e3e6601_cgraph_org.svg" target="_base">
           <rect id="button" ry="5" rx="5" y="6" x="6" height="38" width="38"
                fill="#f2f5e9" fill-opacity="0.5" stroke="#606060" stroke-width="1.0"/>
           <path id="arrow"
             d="M 11.500037,31.436501 C 11.940474,20.09759 22.043105,11.32322 32.158766,21.979434 L 37.068811,17.246167 C 37.068811,17.246167 37.088388,32 37.088388,32 L 22.160133,31.978069 C 22.160133,31.978069 26.997745,27.140456 26.997745,27.140456 C 18.528582,18.264221 13.291696,25.230495 11.500037,31.436501 z"
             style="fill:#404040;"/>
          </a>
         </g>
        </svg>
</svg>
