<?xml version="1.0" encoding="UTF-8" standalone="no"?>
<!DOCTYPE svg PUBLIC "-//W3C//DTD SVG 1.1//EN"
 "http://www.w3.org/Graphics/SVG/1.1/DTD/svg11.dtd">
<!-- Generated by graphviz version 2.49.1 (20210923.0004)
 -->
<!-- Title: main Pages: 1 -->
<svg width="199pt" height="256pt"
 viewBox="0.00 0.00 199.00 256.00" xmlns="http://www.w3.org/2000/svg" xmlns:xlink="http://www.w3.org/1999/xlink">
<g id="graph0" class="graph" transform="scale(1 1) rotate(0) translate(4 252)">
<title>main</title>
<polygon fill="white" stroke="transparent" points="-4,4 -4,-252 195,-252 195,4 -4,4"/>
<!-- Node1 -->
<g id="node1" class="node">
<title>Node1</title>
<g id="a_node1"><a xlink:title="Main function.">
<polygon fill="#bfbfbf" stroke="black" points="0,-114.5 0,-133.5 38,-133.5 38,-114.5 0,-114.5"/>
<text text-anchor="middle" x="19" y="-121.5" font-family="Helvetica,sans-Serif" font-size="10.00">main</text>
</a>
</g>
</g>
<!-- Node2 -->
<g id="node2" class="node">
<title>Node2</title>
<g id="a_node2"><a target="_blank" xlink:href="http://en.cppreference.com/w/cpp/container/vector/clear.html#" xlink:title=" ">
<polygon fill="white" stroke="black" points="87.5,-228.5 87.5,-247.5 177.5,-247.5 177.5,-228.5 87.5,-228.5"/>
<text text-anchor="middle" x="132.5" y="-235.5" font-family="Helvetica,sans-Serif" font-size="10.00">std::vector::clear</text>
</a>
</g>
</g>
<!-- Node1&#45;&gt;Node2 -->
<g id="edge1" class="edge">
<title>Node1&#45;&gt;Node2</title>
<path fill="none" stroke="midnightblue" d="M22.86,-133.62C29.03,-152.7 45.39,-195.55 74,-219 76.06,-220.69 78.28,-222.23 80.61,-223.64"/>
<polygon fill="midnightblue" stroke="midnightblue" points="79.48,-227 89.98,-228.42 82.66,-220.76 79.48,-227"/>
</g>
<!-- Node3 -->
<g id="node3" class="node">
<title>Node3</title>
<g id="a_node3"><a target="_blank" xlink:href="http://en.cppreference.com/w/cpp/container/vector/push_back.html#" xlink:title=" ">
<polygon fill="white" stroke="black" points="74,-190.5 74,-209.5 191,-209.5 191,-190.5 74,-190.5"/>
<text text-anchor="middle" x="132.5" y="-197.5" font-family="Helvetica,sans-Serif" font-size="10.00">std::vector::push_back</text>
</a>
</g>
</g>
<!-- Node1&#45;&gt;Node3 -->
<g id="edge2" class="edge">
<title>Node1&#45;&gt;Node3</title>
<path fill="none" stroke="midnightblue" d="M26.91,-133.88C36.23,-146.52 53.98,-168.28 74,-181 77.16,-183.01 80.55,-184.82 84.05,-186.46"/>
<polygon fill="midnightblue" stroke="midnightblue" points="82.9,-189.77 93.48,-190.4 85.6,-183.31 82.9,-189.77"/>
</g>
<!-- Node4 -->
<g id="node4" class="node">
<title>Node4</title>
<g id="a_node4"><a target="_blank" xlink:href="http://en.cppreference.com/w/cpp/numeric/random/rand.html#" xlink:title=" ">
<polygon fill="white" stroke="black" points="105,-152.5 105,-171.5 160,-171.5 160,-152.5 105,-152.5"/>
<text text-anchor="middle" x="132.5" y="-159.5" font-family="Helvetica,sans-Serif" font-size="10.00">std::rand</text>
</a>
</g>
</g>
<!-- Node1&#45;&gt;Node4 -->
<g id="edge3" class="edge">
<title>Node1&#45;&gt;Node4</title>
<path fill="none" stroke="midnightblue" d="M38.46,-130.6C48.88,-134.29 62.15,-138.96 74,-143 80.75,-145.3 87.97,-147.72 94.92,-150.03"/>
<polygon fill="midnightblue" stroke="midnightblue" points="94.25,-153.49 104.84,-153.31 96.44,-146.85 94.25,-153.49"/>
</g>
<!-- Node5 -->
<g id="node5" class="node">
<title>Node5</title>
<g id="a_node5"><a target="_blank" xlink:href="http://en.cppreference.com/w/cpp/container/vector/reserve.html#" xlink:title=" ">
<polygon fill="white" stroke="black" points="81.5,-114.5 81.5,-133.5 183.5,-133.5 183.5,-114.5 81.5,-114.5"/>
<text text-anchor="middle" x="132.5" y="-121.5" font-family="Helvetica,sans-Serif" font-size="10.00">std::vector::reserve</text>
</a>
</g>
</g>
<!-- Node1&#45;&gt;Node5 -->
<g id="edge4" class="edge">
<title>Node1&#45;&gt;Node5</title>
<path fill="none" stroke="midnightblue" d="M38.41,-124C47.59,-124 59.28,-124 71.24,-124"/>
<polygon fill="midnightblue" stroke="midnightblue" points="71.3,-127.5 81.3,-124 71.3,-120.5 71.3,-127.5"/>
</g>
<!-- Node6 -->
<g id="node6" class="node">
<title>Node6</title>
<g id="a_node6"><a target="_blank" xlink:href="http://en.cppreference.com/w/cpp/numeric/random/srand.html#" xlink:title=" ">
<polygon fill="white" stroke="black" points="102.5,-76.5 102.5,-95.5 162.5,-95.5 162.5,-76.5 102.5,-76.5"/>
<text text-anchor="middle" x="132.5" y="-83.5" font-family="Helvetica,sans-Serif" font-size="10.00">std::srand</text>
</a>
</g>
</g>
<!-- Node1&#45;&gt;Node6 -->
<g id="edge5" class="edge">
<title>Node1&#45;&gt;Node6</title>
<path fill="none" stroke="midnightblue" d="M38.46,-117.4C48.88,-113.71 62.15,-109.04 74,-105 80.01,-102.95 86.38,-100.81 92.61,-98.74"/>
<polygon fill="midnightblue" stroke="midnightblue" points="93.82,-102.02 102.21,-95.56 91.62,-95.38 93.82,-102.02"/>
</g>
<!-- Node7 -->
<g id="node7" class="node">
<title>Node7</title>
<g id="a_node7"><a xlink:href="../../d1/ded/windowed__median_8cpp.html#a6dc652a36ea42ba262c4e4236e3e6601" target="_top" xlink:title="A testing function.">
<polygon fill="white" stroke="black" points="116,-38.5 116,-57.5 149,-57.5 149,-38.5 116,-38.5"/>
<text text-anchor="middle" x="132.5" y="-45.5" font-family="Helvetica,sans-Serif" font-size="10.00">test</text>
</a>
</g>
</g>
<!-- Node1&#45;&gt;Node7 -->
<g id="edge6" class="edge">
<title>Node1&#45;&gt;Node7</title>
<path fill="none" stroke="midnightblue" d="M26.91,-114.12C36.23,-101.48 53.98,-79.72 74,-67 83.72,-60.83 95.64,-56.46 106.11,-53.48"/>
<polygon fill="midnightblue" stroke="midnightblue" points="107.14,-56.83 115.95,-50.95 105.4,-50.05 107.14,-56.83"/>
</g>
<!-- Node8 -->
<g id="node8" class="node">
<title>Node8</title>
<g id="a_node8"><a target="_blank" xlink:href="http://en.cppreference.com/w/cpp/chrono/c/time.html#" xlink:title=" ">
<polygon fill="white" stroke="black" points="105.5,-0.5 105.5,-19.5 159.5,-19.5 159.5,-0.5 105.5,-0.5"/>
<text text-anchor="middle" x="132.5" y="-7.5" font-family="Helvetica,sans-Serif" font-size="10.00">std::time</text>
</a>
</g>
</g>
<!-- Node1&#45;&gt;Node8 -->
<g id="edge7" class="edge">
<title>Node1&#45;&gt;Node8</title>
<path fill="none" stroke="midnightblue" d="M22.86,-114.38C29.03,-95.3 45.39,-52.45 74,-29 80.29,-23.85 88.03,-20.07 95.76,-17.31"/>
<polygon fill="midnightblue" stroke="midnightblue" points="96.92,-20.62 105.45,-14.34 94.87,-13.93 96.92,-20.62"/>
</g>
</g>
</svg>
