<?xml version="1.0" encoding="UTF-8" standalone="no"?>
<!DOCTYPE svg PUBLIC "-//W3C//DTD SVG 1.1//EN"
 "http://www.w3.org/Graphics/SVG/1.1/DTD/svg11.dtd">
<!-- Generated by graphviz version 2.49.1 (20210923.0004)
 -->
<!-- Title: probability/windowed_median.cpp Pages: 1 -->
<svg width="337pt" height="95pt"
 viewBox="0.00 0.00 336.50 95.00" xmlns="http://www.w3.org/2000/svg" xmlns:xlink="http://www.w3.org/1999/xlink">
<g id="graph0" class="graph" transform="scale(1 1) rotate(0) translate(4 91)">
<title>probability/windowed_median.cpp</title>
<polygon fill="white" stroke="transparent" points="-4,4 -4,-91 332.5,-91 332.5,4 -4,4"/>
<!-- Node1 -->
<g id="node1" class="node">
<title>Node1</title>
<g id="a_node1"><a xlink:title="An implementation of a median calculation of a sliding window along a data stream.">
<polygon fill="#bfbfbf" stroke="black" points="102,-56.5 102,-86.5 211,-86.5 211,-56.5 102,-56.5"/>
<text text-anchor="start" x="110" y="-74.5" font-family="Helvetica,sans-Serif" font-size="10.00">probability/windowed</text>
<text text-anchor="middle" x="156.5" y="-63.5" font-family="Helvetica,sans-Serif" font-size="10.00">_median.cpp</text>
</a>
</g>
</g>
<!-- Node2 -->
<g id="node2" class="node">
<title>Node2</title>
<g id="a_node2"><a xlink:title=" ">
<polygon fill="white" stroke="#bfbfbf" points="0,-0.5 0,-19.5 49,-19.5 49,-0.5 0,-0.5"/>
<text text-anchor="middle" x="24.5" y="-7.5" font-family="Helvetica,sans-Serif" font-size="10.00">cassert</text>
</a>
</g>
</g>
<!-- Node1&#45;&gt;Node2 -->
<g id="edge1" class="edge">
<title>Node1&#45;&gt;Node2</title>
<path fill="none" stroke="midnightblue" d="M125.22,-56.4C103.27,-46.51 74.16,-33.38 52.88,-23.79"/>
<polygon fill="midnightblue" stroke="midnightblue" points="54.26,-20.58 43.71,-19.66 51.39,-26.96 54.26,-20.58"/>
</g>
<!-- Node3 -->
<g id="node3" class="node">
<title>Node3</title>
<g id="a_node3"><a xlink:title=" ">
<polygon fill="white" stroke="#bfbfbf" points="67,-0.5 67,-19.5 96,-19.5 96,-0.5 67,-0.5"/>
<text text-anchor="middle" x="81.5" y="-7.5" font-family="Helvetica,sans-Serif" font-size="10.00">list</text>
</a>
</g>
</g>
<!-- Node1&#45;&gt;Node3 -->
<g id="edge2" class="edge">
<title>Node1&#45;&gt;Node3</title>
<path fill="none" stroke="midnightblue" d="M138.73,-56.4C127.15,-47.22 112.08,-35.26 100.3,-25.92"/>
<polygon fill="midnightblue" stroke="midnightblue" points="102.42,-23.13 92.41,-19.66 98.07,-28.61 102.42,-23.13"/>
</g>
<!-- Node4 -->
<g id="node4" class="node">
<title>Node4</title>
<g id="a_node4"><a xlink:title=" ">
<polygon fill="white" stroke="#bfbfbf" points="114.5,-0.5 114.5,-19.5 144.5,-19.5 144.5,-0.5 114.5,-0.5"/>
<text text-anchor="middle" x="129.5" y="-7.5" font-family="Helvetica,sans-Serif" font-size="10.00">set</text>
</a>
</g>
</g>
<!-- Node1&#45;&gt;Node4 -->
<g id="edge3" class="edge">
<title>Node1&#45;&gt;Node4</title>
<path fill="none" stroke="midnightblue" d="M150.1,-56.4C146.38,-48.2 141.65,-37.78 137.67,-28.99"/>
<polygon fill="midnightblue" stroke="midnightblue" points="140.75,-27.32 133.43,-19.66 134.37,-30.21 140.75,-27.32"/>
</g>
<!-- Node5 -->
<g id="node5" class="node">
<title>Node5</title>
<g id="a_node5"><a xlink:title=" ">
<polygon fill="white" stroke="#bfbfbf" points="162.5,-0.5 162.5,-19.5 206.5,-19.5 206.5,-0.5 162.5,-0.5"/>
<text text-anchor="middle" x="184.5" y="-7.5" font-family="Helvetica,sans-Serif" font-size="10.00">vector</text>
</a>
</g>
</g>
<!-- Node1&#45;&gt;Node5 -->
<g id="edge4" class="edge">
<title>Node1&#45;&gt;Node5</title>
<path fill="none" stroke="midnightblue" d="M163.14,-56.4C167.04,-48.11 172,-37.55 176.17,-28.71"/>
<polygon fill="midnightblue" stroke="midnightblue" points="179.33,-30.2 180.43,-19.66 173,-27.22 179.33,-30.2"/>
</g>
<!-- Node6 -->
<g id="node6" class="node">
<title>Node6</title>
<g id="a_node6"><a xlink:title=" ">
<polygon fill="white" stroke="#bfbfbf" points="225,-0.5 225,-19.5 270,-19.5 270,-0.5 225,-0.5"/>
<text text-anchor="middle" x="247.5" y="-7.5" font-family="Helvetica,sans-Serif" font-size="10.00">cstdlib</text>
</a>
</g>
</g>
<!-- Node1&#45;&gt;Node6 -->
<g id="edge5" class="edge">
<title>Node1&#45;&gt;Node6</title>
<path fill="none" stroke="midnightblue" d="M178.07,-56.4C192.38,-47.04 211.11,-34.79 225.51,-25.38"/>
<polygon fill="midnightblue" stroke="midnightblue" points="227.8,-28.06 234.26,-19.66 223.97,-22.2 227.8,-28.06"/>
</g>
<!-- Node7 -->
<g id="node7" class="node">
<title>Node7</title>
<g id="a_node7"><a xlink:title=" ">
<polygon fill="white" stroke="#bfbfbf" points="288.5,-0.5 288.5,-19.5 328.5,-19.5 328.5,-0.5 288.5,-0.5"/>
<text text-anchor="middle" x="308.5" y="-7.5" font-family="Helvetica,sans-Serif" font-size="10.00">ctime</text>
</a>
</g>
</g>
<!-- Node1&#45;&gt;Node7 -->
<g id="edge6" class="edge">
<title>Node1&#45;&gt;Node7</title>
<path fill="none" stroke="midnightblue" d="M192.52,-56.4C218.76,-46.13 253.87,-32.38 278.57,-22.72"/>
<polygon fill="midnightblue" stroke="midnightblue" points="280.1,-25.88 288.13,-18.97 277.55,-19.36 280.1,-25.88"/>
</g>
</g>
</svg>
