<?xml version="1.0" encoding="UTF-8" standalone="no"?>
<!DOCTYPE svg PUBLIC "-//W3C//DTD SVG 1.1//EN"
 "http://www.w3.org/Graphics/SVG/1.1/DTD/svg11.dtd">
<!-- Generated by graphviz version 2.49.1 (20210923.0004)
 -->
<!-- Title: probability/windowed_median.cpp Pages: 1 -->
<svg width="486pt" height="95pt"
 viewBox="0.00 0.00 486.00 95.00" xmlns="http://www.w3.org/2000/svg" xmlns:xlink="http://www.w3.org/1999/xlink">
<g id="graph0" class="graph" transform="scale(1 1) rotate(0) translate(4 91)">
<title>probability/windowed_median.cpp</title>
<polygon fill="white" stroke="transparent" points="-4,4 -4,-91 482,-91 482,4 -4,4"/>
<!-- Node1 -->
<g id="node1" class="node">
<title>Node1</title>
<g id="a_node1"><a xlink:title="An implementation of a median calculation of a sliding window along a data stream.">
<polygon fill="#bfbfbf" stroke="black" points="200.5,-56.5 200.5,-86.5 309.5,-86.5 309.5,-56.5 200.5,-56.5"/>
<text text-anchor="start" x="208.5" y="-74.5" font-family="Helvetica,sans-Serif" font-size="10.00">probability/windowed</text>
<text text-anchor="middle" x="255" y="-63.5" font-family="Helvetica,sans-Serif" font-size="10.00">_median.cpp</text>
</a>
</g>
</g>
<!-- Node2 -->
<g id="node2" class="node">
<title>Node2</title>
<g id="a_node2"><a xlink:title=" ">
<polygon fill="white" stroke="#bfbfbf" points="0,-0.5 0,-19.5 58,-19.5 58,-0.5 0,-0.5"/>
<text text-anchor="middle" x="29" y="-7.5" font-family="Helvetica,sans-Serif" font-size="10.00">algorithm</text>
</a>
</g>
</g>
<!-- Node1&#45;&gt;Node2 -->
<g id="edge1" class="edge">
<title>Node1&#45;&gt;Node2</title>
<path fill="none" stroke="midnightblue" d="M201.73,-56.47C160.69,-45.67 104.91,-30.99 67.98,-21.26"/>
<polygon fill="midnightblue" stroke="midnightblue" points="68.65,-17.82 58.09,-18.66 66.87,-24.59 68.65,-17.82"/>
</g>
<!-- Node3 -->
<g id="node3" class="node">
<title>Node3</title>
<g id="a_node3"><a xlink:title=" ">
<polygon fill="white" stroke="#bfbfbf" points="76.5,-0.5 76.5,-19.5 125.5,-19.5 125.5,-0.5 76.5,-0.5"/>
<text text-anchor="middle" x="101" y="-7.5" font-family="Helvetica,sans-Serif" font-size="10.00">cassert</text>
</a>
</g>
</g>
<!-- Node1&#45;&gt;Node3 -->
<g id="edge2" class="edge">
<title>Node1&#45;&gt;Node3</title>
<path fill="none" stroke="midnightblue" d="M218.5,-56.4C192.43,-46.33 157.71,-32.91 132.78,-23.28"/>
<polygon fill="midnightblue" stroke="midnightblue" points="134,-20 123.41,-19.66 131.47,-26.53 134,-20"/>
</g>
<!-- Node4 -->
<g id="node4" class="node">
<title>Node4</title>
<g id="a_node4"><a xlink:title=" ">
<polygon fill="white" stroke="#bfbfbf" points="143.5,-0.5 143.5,-19.5 198.5,-19.5 198.5,-0.5 143.5,-0.5"/>
<text text-anchor="middle" x="171" y="-7.5" font-family="Helvetica,sans-Serif" font-size="10.00">iostream</text>
</a>
</g>
</g>
<!-- Node1&#45;&gt;Node4 -->
<g id="edge3" class="edge">
<title>Node1&#45;&gt;Node4</title>
<path fill="none" stroke="midnightblue" d="M235.09,-56.4C222.01,-47.13 204.92,-35.03 191.68,-25.65"/>
<polygon fill="midnightblue" stroke="midnightblue" points="193.41,-22.58 183.22,-19.66 189.36,-28.29 193.41,-22.58"/>
</g>
<!-- Node5 -->
<g id="node5" class="node">
<title>Node5</title>
<g id="a_node5"><a xlink:title=" ">
<polygon fill="white" stroke="#bfbfbf" points="216.5,-0.5 216.5,-19.5 245.5,-19.5 245.5,-0.5 216.5,-0.5"/>
<text text-anchor="middle" x="231" y="-7.5" font-family="Helvetica,sans-Serif" font-size="10.00">list</text>
</a>
</g>
</g>
<!-- Node1&#45;&gt;Node5 -->
<g id="edge4" class="edge">
<title>Node1&#45;&gt;Node5</title>
<path fill="none" stroke="midnightblue" d="M249.31,-56.4C246,-48.2 241.8,-37.78 238.26,-28.99"/>
<polygon fill="midnightblue" stroke="midnightblue" points="241.48,-27.62 234.49,-19.66 234.99,-30.24 241.48,-27.62"/>
</g>
<!-- Node6 -->
<g id="node6" class="node">
<title>Node6</title>
<g id="a_node6"><a xlink:title=" ">
<polygon fill="white" stroke="#bfbfbf" points="264,-0.5 264,-19.5 294,-19.5 294,-0.5 264,-0.5"/>
<text text-anchor="middle" x="279" y="-7.5" font-family="Helvetica,sans-Serif" font-size="10.00">set</text>
</a>
</g>
</g>
<!-- Node1&#45;&gt;Node6 -->
<g id="edge5" class="edge">
<title>Node1&#45;&gt;Node6</title>
<path fill="none" stroke="midnightblue" d="M260.69,-56.4C264,-48.2 268.2,-37.78 271.74,-28.99"/>
<polygon fill="midnightblue" stroke="midnightblue" points="275.01,-30.24 275.51,-19.66 268.52,-27.62 275.01,-30.24"/>
</g>
<!-- Node7 -->
<g id="node7" class="node">
<title>Node7</title>
<g id="a_node7"><a xlink:title=" ">
<polygon fill="white" stroke="#bfbfbf" points="312,-0.5 312,-19.5 356,-19.5 356,-0.5 312,-0.5"/>
<text text-anchor="middle" x="334" y="-7.5" font-family="Helvetica,sans-Serif" font-size="10.00">vector</text>
</a>
</g>
</g>
<!-- Node1&#45;&gt;Node7 -->
<g id="edge6" class="edge">
<title>Node1&#45;&gt;Node7</title>
<path fill="none" stroke="midnightblue" d="M273.72,-56.4C285.91,-47.22 301.79,-35.26 314.19,-25.92"/>
<polygon fill="midnightblue" stroke="midnightblue" points="316.62,-28.47 322.5,-19.66 312.41,-22.88 316.62,-28.47"/>
</g>
<!-- Node8 -->
<g id="node8" class="node">
<title>Node8</title>
<g id="a_node8"><a xlink:title=" ">
<polygon fill="white" stroke="#bfbfbf" points="374.5,-0.5 374.5,-19.5 419.5,-19.5 419.5,-0.5 374.5,-0.5"/>
<text text-anchor="middle" x="397" y="-7.5" font-family="Helvetica,sans-Serif" font-size="10.00">cstdlib</text>
</a>
</g>
</g>
<!-- Node1&#45;&gt;Node8 -->
<g id="edge7" class="edge">
<title>Node1&#45;&gt;Node8</title>
<path fill="none" stroke="midnightblue" d="M288.65,-56.4C312.48,-46.42 344.15,-33.15 367.09,-23.53"/>
<polygon fill="midnightblue" stroke="midnightblue" points="368.47,-26.75 376.34,-19.66 365.76,-20.29 368.47,-26.75"/>
</g>
<!-- Node9 -->
<g id="node9" class="node">
<title>Node9</title>
<g id="a_node9"><a xlink:title=" ">
<polygon fill="white" stroke="#bfbfbf" points="438,-0.5 438,-19.5 478,-19.5 478,-0.5 438,-0.5"/>
<text text-anchor="middle" x="458" y="-7.5" font-family="Helvetica,sans-Serif" font-size="10.00">ctime</text>
</a>
</g>
</g>
<!-- Node1&#45;&gt;Node9 -->
<g id="edge8" class="edge">
<title>Node1&#45;&gt;Node9</title>
<path fill="none" stroke="midnightblue" d="M304.2,-56.48C336.83,-47.13 380.85,-34.39 427.96,-20.28"/>
<polygon fill="midnightblue" stroke="midnightblue" points="429.16,-23.57 437.73,-17.34 427.15,-16.87 429.16,-23.57"/>
</g>
</g>
</svg>
