<?xml version="1.0" encoding="UTF-8" standalone="no"?>
<!DOCTYPE svg PUBLIC "-//W3C//DTD SVG 1.1//EN"
 "http://www.w3.org/Graphics/SVG/1.1/DTD/svg11.dtd">
<!-- Generated by graphviz version 2.49.1 (20210923.0004)
 -->
<!-- Title: probability/windowed_median.cpp Pages: 1 -->
<svg width="400pt" height="95pt"
 viewBox="0.00 0.00 399.50 95.00" xmlns="http://www.w3.org/2000/svg" xmlns:xlink="http://www.w3.org/1999/xlink">
<g id="graph0" class="graph" transform="scale(1 1) rotate(0) translate(4 91)">
<title>probability/windowed_median.cpp</title>
<polygon fill="white" stroke="transparent" points="-4,4 -4,-91 395.5,-91 395.5,4 -4,4"/>
<!-- Node1 -->
<g id="node1" class="node">
<title>Node1</title>
<g id="a_node1"><a xlink:title="An implementation of a median calculation of a sliding window along a data stream.">
<polygon fill="#bfbfbf" stroke="black" points="138,-56.5 138,-86.5 247,-86.5 247,-56.5 138,-56.5"/>
<text text-anchor="start" x="146" y="-74.5" font-family="Helvetica,sans-Serif" font-size="10.00">probability/windowed</text>
<text text-anchor="middle" x="192.5" y="-63.5" font-family="Helvetica,sans-Serif" font-size="10.00">_median.cpp</text>
</a>
</g>
</g>
<!-- Node2 -->
<g id="node2" class="node">
<title>Node2</title>
<g id="a_node2"><a xlink:title=" ">
<polygon fill="white" stroke="#bfbfbf" points="0,-0.5 0,-19.5 49,-19.5 49,-0.5 0,-0.5"/>
<text text-anchor="middle" x="24.5" y="-7.5" font-family="Helvetica,sans-Serif" font-size="10.00">cassert</text>
</a>
</g>
</g>
<!-- Node1&#45;&gt;Node2 -->
<g id="edge1" class="edge">
<title>Node1&#45;&gt;Node2</title>
<path fill="none" stroke="midnightblue" d="M152.69,-56.4C124,-46.24 85.69,-32.67 58.44,-23.02"/>
<polygon fill="midnightblue" stroke="midnightblue" points="59.54,-19.7 48.95,-19.66 57.2,-26.3 59.54,-19.7"/>
</g>
<!-- Node3 -->
<g id="node3" class="node">
<title>Node3</title>
<g id="a_node3"><a xlink:title=" ">
<polygon fill="white" stroke="#bfbfbf" points="67,-0.5 67,-19.5 112,-19.5 112,-0.5 67,-0.5"/>
<text text-anchor="middle" x="89.5" y="-7.5" font-family="Helvetica,sans-Serif" font-size="10.00">cstdint</text>
</a>
</g>
</g>
<!-- Node1&#45;&gt;Node3 -->
<g id="edge2" class="edge">
<title>Node1&#45;&gt;Node3</title>
<path fill="none" stroke="midnightblue" d="M168.09,-56.4C151.58,-46.86 129.88,-34.32 113.46,-24.84"/>
<polygon fill="midnightblue" stroke="midnightblue" points="114.9,-21.63 104.49,-19.66 111.4,-27.69 114.9,-21.63"/>
</g>
<!-- Node4 -->
<g id="node4" class="node">
<title>Node4</title>
<g id="a_node4"><a xlink:title=" ">
<polygon fill="white" stroke="#bfbfbf" points="130,-0.5 130,-19.5 159,-19.5 159,-0.5 130,-0.5"/>
<text text-anchor="middle" x="144.5" y="-7.5" font-family="Helvetica,sans-Serif" font-size="10.00">list</text>
</a>
</g>
</g>
<!-- Node1&#45;&gt;Node4 -->
<g id="edge3" class="edge">
<title>Node1&#45;&gt;Node4</title>
<path fill="none" stroke="midnightblue" d="M181.12,-56.4C174.15,-47.75 165.19,-36.64 157.87,-27.58"/>
<polygon fill="midnightblue" stroke="midnightblue" points="160.49,-25.24 151.48,-19.66 155.04,-29.64 160.49,-25.24"/>
</g>
<!-- Node5 -->
<g id="node5" class="node">
<title>Node5</title>
<g id="a_node5"><a xlink:title=" ">
<polygon fill="white" stroke="#bfbfbf" points="177.5,-0.5 177.5,-19.5 207.5,-19.5 207.5,-0.5 177.5,-0.5"/>
<text text-anchor="middle" x="192.5" y="-7.5" font-family="Helvetica,sans-Serif" font-size="10.00">set</text>
</a>
</g>
</g>
<!-- Node1&#45;&gt;Node5 -->
<g id="edge4" class="edge">
<title>Node1&#45;&gt;Node5</title>
<path fill="none" stroke="midnightblue" d="M192.5,-56.4C192.5,-48.47 192.5,-38.46 192.5,-29.86"/>
<polygon fill="midnightblue" stroke="midnightblue" points="196,-29.66 192.5,-19.66 189,-29.66 196,-29.66"/>
</g>
<!-- Node6 -->
<g id="node6" class="node">
<title>Node6</title>
<g id="a_node6"><a xlink:title=" ">
<polygon fill="white" stroke="#bfbfbf" points="225.5,-0.5 225.5,-19.5 269.5,-19.5 269.5,-0.5 225.5,-0.5"/>
<text text-anchor="middle" x="247.5" y="-7.5" font-family="Helvetica,sans-Serif" font-size="10.00">vector</text>
</a>
</g>
</g>
<!-- Node1&#45;&gt;Node6 -->
<g id="edge5" class="edge">
<title>Node1&#45;&gt;Node6</title>
<path fill="none" stroke="midnightblue" d="M205.53,-56.4C213.69,-47.58 224.22,-36.18 232.69,-27.02"/>
<polygon fill="midnightblue" stroke="midnightblue" points="235.28,-29.38 239.5,-19.66 230.14,-24.63 235.28,-29.38"/>
</g>
<!-- Node7 -->
<g id="node7" class="node">
<title>Node7</title>
<g id="a_node7"><a xlink:title=" ">
<polygon fill="white" stroke="#bfbfbf" points="288,-0.5 288,-19.5 333,-19.5 333,-0.5 288,-0.5"/>
<text text-anchor="middle" x="310.5" y="-7.5" font-family="Helvetica,sans-Serif" font-size="10.00">cstdlib</text>
</a>
</g>
</g>
<!-- Node1&#45;&gt;Node7 -->
<g id="edge6" class="edge">
<title>Node1&#45;&gt;Node7</title>
<path fill="none" stroke="midnightblue" d="M220.46,-56.4C239.82,-46.64 265.41,-33.74 284.36,-24.18"/>
<polygon fill="midnightblue" stroke="midnightblue" points="285.98,-27.29 293.33,-19.66 282.83,-21.04 285.98,-27.29"/>
</g>
<!-- Node8 -->
<g id="node8" class="node">
<title>Node8</title>
<g id="a_node8"><a xlink:title=" ">
<polygon fill="white" stroke="#bfbfbf" points="351.5,-0.5 351.5,-19.5 391.5,-19.5 391.5,-0.5 351.5,-0.5"/>
<text text-anchor="middle" x="371.5" y="-7.5" font-family="Helvetica,sans-Serif" font-size="10.00">ctime</text>
</a>
</g>
</g>
<!-- Node1&#45;&gt;Node8 -->
<g id="edge7" class="edge">
<title>Node1&#45;&gt;Node8</title>
<path fill="none" stroke="midnightblue" d="M234.92,-56.4C267.84,-45.46 312.65,-30.56 341.82,-20.87"/>
<polygon fill="midnightblue" stroke="midnightblue" points="343.05,-24.14 351.44,-17.67 340.85,-17.5 343.05,-24.14"/>
</g>
</g>
</svg>
