<?xml version="1.0" encoding="UTF-8" standalone="no"?>
<!DOCTYPE svg PUBLIC "-//W3C//DTD SVG 1.1//EN"
 "http://www.w3.org/Graphics/SVG/1.1/DTD/svg11.dtd">
<!-- Generated by graphviz version 2.49.1 (20210923.0004)
 -->
<!-- Title: probability::WindowedMedian::insertToSorted Pages: 1 -->
<svg width="291pt" height="104pt"
 viewBox="0.00 0.00 291.00 104.00" xmlns="http://www.w3.org/2000/svg" xmlns:xlink="http://www.w3.org/1999/xlink">
<g id="graph0" class="graph" transform="scale(1 1) rotate(0) translate(4 100)">
<title>probability::WindowedMedian::insertToSorted</title>
<polygon fill="white" stroke="transparent" points="-4,4 -4,-100 287,-100 287,4 -4,4"/>
<!-- Node1 -->
<g id="node1" class="node">
<title>Node1</title>
<g id="a_node1"><a xlink:title="Inserts a value to a sorted multi&#45;value BST.">
<polygon fill="#bfbfbf" stroke="black" points="0,-33 0,-63 147,-63 147,-33 0,-33"/>
<text text-anchor="start" x="8" y="-51" font-family="Helvetica,sans-Serif" font-size="10.00">probability::WindowedMedian</text>
<text text-anchor="middle" x="73.5" y="-40" font-family="Helvetica,sans-Serif" font-size="10.00">::insertToSorted</text>
</a>
</g>
</g>
<!-- Node2 -->
<g id="node2" class="node">
<title>Node2</title>
<g id="a_node2"><a target="_blank" xlink:href="http://en.cppreference.com/w/cpp/container/multiset/begin.html#" xlink:title=" ">
<polygon fill="white" stroke="black" points="183,-76.5 183,-95.5 283,-95.5 283,-76.5 183,-76.5"/>
<text text-anchor="middle" x="233" y="-83.5" font-family="Helvetica,sans-Serif" font-size="10.00">std::multiset::begin</text>
</a>
</g>
</g>
<!-- Node1&#45;&gt;Node2 -->
<g id="edge1" class="edge">
<title>Node1&#45;&gt;Node2</title>
<path fill="none" stroke="midnightblue" d="M136.75,-63.02C151.98,-66.69 168.07,-70.58 182.61,-74.08"/>
<polygon fill="midnightblue" stroke="midnightblue" points="181.85,-77.5 192.39,-76.44 183.49,-70.7 181.85,-77.5"/>
</g>
<!-- Node3 -->
<g id="node3" class="node">
<title>Node3</title>
<g id="a_node3"><a target="_blank" xlink:href="http://en.cppreference.com/w/cpp/container/multiset/insert.html#" xlink:title=" ">
<polygon fill="white" stroke="black" points="183,-38.5 183,-57.5 283,-57.5 283,-38.5 183,-38.5"/>
<text text-anchor="middle" x="233" y="-45.5" font-family="Helvetica,sans-Serif" font-size="10.00">std::multiset::insert</text>
</a>
</g>
</g>
<!-- Node1&#45;&gt;Node3 -->
<g id="edge2" class="edge">
<title>Node1&#45;&gt;Node3</title>
<path fill="none" stroke="midnightblue" d="M147.26,-48C155.85,-48 164.54,-48 172.92,-48"/>
<polygon fill="midnightblue" stroke="midnightblue" points="172.95,-51.5 182.95,-48 172.95,-44.5 172.95,-51.5"/>
</g>
<!-- Node4 -->
<g id="node4" class="node">
<title>Node4</title>
<g id="a_node4"><a target="_blank" xlink:href="http://en.cppreference.com/w/cpp/container/multiset/size.html#" xlink:title=" ">
<polygon fill="white" stroke="black" points="186.5,-0.5 186.5,-19.5 279.5,-19.5 279.5,-0.5 186.5,-0.5"/>
<text text-anchor="middle" x="233" y="-7.5" font-family="Helvetica,sans-Serif" font-size="10.00">std::multiset::size</text>
</a>
</g>
</g>
<!-- Node1&#45;&gt;Node4 -->
<g id="edge3" class="edge">
<title>Node1&#45;&gt;Node4</title>
<path fill="none" stroke="midnightblue" d="M136.75,-32.98C151.98,-29.31 168.07,-25.42 182.61,-21.92"/>
<polygon fill="midnightblue" stroke="midnightblue" points="183.49,-25.3 192.39,-19.56 181.85,-18.5 183.49,-25.3"/>
</g>
</g>
</svg>
