<?xml version="1.0" encoding="UTF-8" standalone="no"?>
<!DOCTYPE svg PUBLIC "-//W3C//DTD SVG 1.1//EN"
 "http://www.w3.org/Graphics/SVG/1.1/DTD/svg11.dtd">
<!-- Generated by graphviz version 2.49.1 (20210923.0004)
 -->
<!-- Title: probability::WindowedMedian::insert Pages: 1 -->
<svg width="338pt" height="242pt"
 viewBox="0.00 0.00 338.00 241.50" xmlns="http://www.w3.org/2000/svg" xmlns:xlink="http://www.w3.org/1999/xlink">
<g id="graph0" class="graph" transform="scale(1 1) rotate(0) translate(4 237.5)">
<title>probability::WindowedMedian::insert</title>
<polygon fill="white" stroke="transparent" points="-4,4 -4,-237.5 334,-237.5 334,4 -4,4"/>
<!-- Node1 -->
<g id="node1" class="node">
<title>Node1</title>
<g id="a_node1"><a xlink:title="Insert a new value to the stream.">
<polygon fill="#bfbfbf" stroke="black" points="0,-93 0,-123 147,-123 147,-93 0,-93"/>
<text text-anchor="start" x="8" y="-111" font-family="Helvetica,sans-Serif" font-size="10.00">probability::WindowedMedian</text>
<text text-anchor="middle" x="73.5" y="-100" font-family="Helvetica,sans-Serif" font-size="10.00">::insert</text>
</a>
</g>
</g>
<!-- Node2 -->
<g id="node2" class="node">
<title>Node2</title>
<g id="a_node2"><a xlink:href="../../d6/dda/classprobability_1_1_windowed_median.html#ac1fa194c35fe54e7913185b8df5de097" target="_top" xlink:title="Erases a value from a sorted multi&#45;value BST.">
<polygon fill="white" stroke="black" points="183,-203 183,-233 330,-233 330,-203 183,-203"/>
<text text-anchor="start" x="191" y="-221" font-family="Helvetica,sans-Serif" font-size="10.00">probability::WindowedMedian</text>
<text text-anchor="middle" x="256.5" y="-210" font-family="Helvetica,sans-Serif" font-size="10.00">::eraseFromSorted</text>
</a>
</g>
</g>
<!-- Node1&#45;&gt;Node2 -->
<g id="edge1" class="edge">
<title>Node1&#45;&gt;Node2</title>
<path fill="none" stroke="midnightblue" d="M90.2,-123.1C110.3,-141.72 146.85,-173.33 183,-193 186.92,-195.13 191.06,-197.14 195.29,-199.01"/>
<polygon fill="midnightblue" stroke="midnightblue" points="194.07,-202.29 204.65,-202.89 196.76,-195.83 194.07,-202.29"/>
</g>
<!-- Node3 -->
<g id="node3" class="node">
<title>Node3</title>
<g id="a_node3"><a target="_blank" xlink:href="http://en.cppreference.com/w/cpp/container/list/front.html#" xlink:title=" ">
<polygon fill="white" stroke="black" points="220,-164.5 220,-183.5 293,-183.5 293,-164.5 220,-164.5"/>
<text text-anchor="middle" x="256.5" y="-171.5" font-family="Helvetica,sans-Serif" font-size="10.00">std::list::front</text>
</a>
</g>
</g>
<!-- Node1&#45;&gt;Node3 -->
<g id="edge2" class="edge">
<title>Node1&#45;&gt;Node3</title>
<path fill="none" stroke="midnightblue" d="M105.81,-123.07C127.21,-133 156.42,-145.82 183,-155 191.58,-157.96 200.86,-160.72 209.84,-163.17"/>
<polygon fill="midnightblue" stroke="midnightblue" points="209.21,-166.62 219.78,-165.79 211,-159.85 209.21,-166.62"/>
</g>
<!-- Node4 -->
<g id="node4" class="node">
<title>Node4</title>
<g id="a_node4"><a xlink:href="../../d6/dda/classprobability_1_1_windowed_median.html#a1d04e16e1c74b1f5b56aaf31d8409c4d" target="_top" xlink:title="Inserts a value to a sorted multi&#45;value BST.">
<polygon fill="white" stroke="black" points="183,-115 183,-145 330,-145 330,-115 183,-115"/>
<text text-anchor="start" x="191" y="-133" font-family="Helvetica,sans-Serif" font-size="10.00">probability::WindowedMedian</text>
<text text-anchor="middle" x="256.5" y="-122" font-family="Helvetica,sans-Serif" font-size="10.00">::insertToSorted</text>
</a>
</g>
</g>
<!-- Node1&#45;&gt;Node4 -->
<g id="edge3" class="edge">
<title>Node1&#45;&gt;Node4</title>
<path fill="none" stroke="midnightblue" d="M147.08,-116.82C155.56,-117.85 164.26,-118.91 172.87,-119.96"/>
<polygon fill="midnightblue" stroke="midnightblue" points="172.56,-123.44 182.91,-121.18 173.4,-116.5 172.56,-123.44"/>
</g>
<!-- Node5 -->
<g id="node5" class="node">
<title>Node5</title>
<g id="a_node5"><a target="_blank" xlink:href="http://en.cppreference.com/w/cpp/container/list/pop_front.html#" xlink:title=" ">
<polygon fill="white" stroke="black" points="209,-76.5 209,-95.5 304,-95.5 304,-76.5 209,-76.5"/>
<text text-anchor="middle" x="256.5" y="-83.5" font-family="Helvetica,sans-Serif" font-size="10.00">std::list::pop_front</text>
</a>
</g>
</g>
<!-- Node1&#45;&gt;Node5 -->
<g id="edge4" class="edge">
<title>Node1&#45;&gt;Node5</title>
<path fill="none" stroke="midnightblue" d="M147.08,-99.18C164.34,-97.08 182.52,-94.87 198.95,-92.87"/>
<polygon fill="midnightblue" stroke="midnightblue" points="199.42,-96.34 208.92,-91.66 198.58,-89.39 199.42,-96.34"/>
</g>
<!-- Node6 -->
<g id="node6" class="node">
<title>Node6</title>
<g id="a_node6"><a target="_blank" xlink:href="http://en.cppreference.com/w/cpp/container/list/push_back.html#" xlink:title=" ">
<polygon fill="white" stroke="black" points="205.5,-38.5 205.5,-57.5 307.5,-57.5 307.5,-38.5 205.5,-38.5"/>
<text text-anchor="middle" x="256.5" y="-45.5" font-family="Helvetica,sans-Serif" font-size="10.00">std::list::push_back</text>
</a>
</g>
</g>
<!-- Node1&#45;&gt;Node6 -->
<g id="edge5" class="edge">
<title>Node1&#45;&gt;Node6</title>
<path fill="none" stroke="midnightblue" d="M111.32,-92.98C132.17,-84.76 158.83,-74.71 183,-67 190.5,-64.61 198.5,-62.29 206.34,-60.14"/>
<polygon fill="midnightblue" stroke="midnightblue" points="207.4,-63.48 216.15,-57.51 205.59,-56.71 207.4,-63.48"/>
</g>
<!-- Node7 -->
<g id="node7" class="node">
<title>Node7</title>
<g id="a_node7"><a target="_blank" xlink:href="http://en.cppreference.com/w/cpp/container/list/size.html#" xlink:title=" ">
<polygon fill="white" stroke="black" points="221,-0.5 221,-19.5 292,-19.5 292,-0.5 221,-0.5"/>
<text text-anchor="middle" x="256.5" y="-7.5" font-family="Helvetica,sans-Serif" font-size="10.00">std::list::size</text>
</a>
</g>
</g>
<!-- Node1&#45;&gt;Node7 -->
<g id="edge6" class="edge">
<title>Node1&#45;&gt;Node7</title>
<path fill="none" stroke="midnightblue" d="M90.89,-92.99C111.11,-75.24 147.21,-45.97 183,-29 191.73,-24.86 201.49,-21.53 210.95,-18.88"/>
<polygon fill="midnightblue" stroke="midnightblue" points="211.84,-22.26 220.64,-16.36 210.08,-15.48 211.84,-22.26"/>
</g>
</g>
</svg>
